<?xml version="1.0" standalone="no"?>
<!DOCTYPE svg PUBLIC "-//W3C//DTD SVG 20010904//EN"
 "http://www.w3.org/TR/2001/REC-SVG-20010904/DTD/svg10.dtd">
<svg version="1.0" xmlns="http://www.w3.org/2000/svg"
 width="4167.000000pt" height="4167.000000pt" viewBox="0 0 4167.000000 4167.000000"
 preserveAspectRatio="xMidYMid meet">
<metadata>
Created by potrace 1.14, written by Peter Selinger 2001-2017
</metadata>
<g transform="translate(0.000000,4167.000000) scale(0.100000,-0.100000)"
fill="#000000" stroke="none">
<path d="M12380 26819 c0 -7 -3 -9 -7 -6 -3 4 -12 2 -20 -4 -10 -9 -13 -8 -13
1 0 10 -3 10 -15 0 -11 -9 -15 -9 -15 -1 0 7 -4 10 -8 7 -5 -3 -23 -8 -41 -11
-25 -4 -31 -2 -25 7 5 10 4 10 -6 1 -7 -6 -19 -9 -28 -6 -11 5 -13 2 -7 -6 6
-10 3 -11 -13 -2 -16 9 -24 8 -36 -5 -9 -8 -16 -11 -16 -5 0 10 -91 7 -110 -4
-5 -3 -10 -1 -10 6 0 10 -3 10 -11 2 -6 -6 -18 -9 -27 -6 -10 4 -13 2 -8 -5 4
-7 2 -12 -3 -12 -6 0 -11 8 -12 18 0 15 -1 15 -8 -2 -5 -14 -10 -16 -15 -8 -4
7 -13 9 -19 5 -7 -4 -25 -9 -42 -10 -76 -4 -105 -9 -105 -16 0 -4 -8 -3 -18 2
-13 7 -23 6 -30 -1 -7 -7 -12 -9 -12 -5 0 4 -9 3 -20 -3 -12 -6 -20 -7 -20 -1
0 11 -26 9 -37 -4 -4 -4 -2 -5 6 0 10 6 12 4 7 -4 -6 -8 -12 -9 -20 -2 -7 6
-15 8 -18 6 -3 -3 -25 -8 -49 -11 -23 -3 -47 -7 -51 -10 -4 -3 -8 1 -8 8 0 10
-2 10 -9 -1 -5 -8 -16 -11 -25 -8 -9 4 -16 2 -16 -4 0 -6 -5 -7 -10 -4 -6 4
-17 2 -25 -5 -10 -8 -15 -8 -20 1 -5 7 -10 8 -14 1 -4 -6 -27 -12 -51 -13 -25
-1 -51 -7 -59 -13 -12 -9 -13 -8 -6 3 6 11 5 12 -6 5 -18 -11 -36 -15 -84 -18
-22 -1 -39 -6 -38 -12 1 -5 -17 -10 -40 -11 -70 -3 -131 -14 -146 -26 -12 -10
-13 -9 -6 3 7 12 6 13 -6 3 -15 -12 -66 -23 -121 -26 -17 -1 -28 -8 -29 -17 0
-10 -2 -11 -6 -3 -3 8 -10 9 -21 3 -18 -9 -91 -25 -104 -22 -5 1 -8 -2 -8 -8
0 -5 -7 -7 -15 -4 -8 4 -21 2 -28 -4 -6 -5 -20 -8 -29 -7 -10 2 -18 -1 -18 -7
0 -6 -7 -5 -16 2 -12 11 -15 11 -12 -1 2 -9 -5 -14 -22 -13 -14 1 -28 -3 -32
-10 -4 -7 -21 -11 -37 -10 -17 1 -31 -2 -31 -8 0 -5 -4 -6 -10 -3 -5 3 -16 3
-22 -2 -7 -4 -24 -9 -38 -11 -13 -2 -27 -7 -30 -11 -3 -5 -13 -7 -22 -5 -10 1
-18 -1 -18 -5 0 -4 -12 -8 -27 -9 -15 -1 -29 -5 -32 -10 -5 -6 -24 -11 -58
-14 -7 -1 -13 -5 -13 -9 0 -4 -8 -6 -17 -5 -10 2 -21 -1 -24 -5 -3 -5 -17 -10
-32 -11 -15 -1 -27 -6 -27 -11 0 -5 -7 -7 -15 -3 -8 3 -15 1 -15 -3 0 -5 -11
-8 -25 -6 -14 1 -29 -4 -34 -12 -4 -8 -20 -16 -34 -16 -15 -1 -27 -6 -27 -10
0 -5 -4 -6 -9 -2 -5 3 -15 -1 -23 -8 -7 -8 -19 -12 -26 -9 -6 2 -12 -2 -12
-10 0 -10 -3 -9 -10 2 -6 10 -10 11 -10 3 0 -7 -9 -13 -20 -13 -11 0 -20 -5
-20 -12 0 -6 -3 -9 -6 -5 -3 3 -29 -3 -56 -14 -27 -10 -54 -16 -60 -13 -7 4
-8 2 -4 -4 6 -10 -7 -17 -17 -9 -2 1 -11 -4 -20 -11 -9 -8 -22 -10 -28 -6 -8
5 -9 3 -4 -6 6 -10 4 -12 -8 -7 -10 3 -17 2 -17 -4 0 -6 -4 -7 -10 -4 -5 3
-10 1 -10 -5 0 -6 -4 -8 -10 -5 -5 3 -10 1 -10 -5 0 -7 -6 -10 -14 -7 -7 3
-19 0 -25 -6 -10 -10 -30 -17 -58 -19 -7 -1 -10 -5 -7 -9 2 -4 -11 -11 -31
-15 -19 -3 -35 -10 -35 -15 0 -5 -5 -9 -12 -9 -18 0 -88 -33 -88 -41 0 -4 -9
-6 -19 -4 -11 2 -22 -3 -25 -12 -4 -8 -13 -13 -21 -9 -8 3 -15 0 -15 -6 0 -6
-3 -8 -6 -5 -4 4 -19 -2 -34 -13 -15 -11 -30 -17 -34 -13 -3 3 -6 1 -6 -6 0
-7 -4 -10 -9 -7 -5 4 -11 3 -13 -1 -4 -10 -120 -67 -130 -65 -5 1 -8 -3 -8 -9
0 -5 -4 -8 -9 -4 -6 3 -14 -3 -20 -12 -8 -14 -11 -15 -11 -3 0 12 -3 11 -11
-2 -5 -10 -17 -18 -24 -18 -8 0 -15 -5 -15 -11 0 -5 -4 -7 -10 -4 -5 3 -10 1
-10 -5 0 -6 -4 -8 -10 -5 -5 3 -10 1 -10 -4 0 -6 -9 -11 -20 -11 -11 0 -20 -5
-20 -11 0 -5 -4 -7 -10 -4 -5 3 -10 2 -10 -4 0 -6 -11 -13 -25 -17 -14 -3 -25
-9 -25 -13 0 -3 -9 -12 -21 -19 -17 -11 -20 -11 -14 0 3 7 0 5 -9 -6 -8 -10
-20 -15 -27 -10 -8 4 -10 3 -5 -4 5 -8 0 -12 -14 -12 -11 0 -23 -7 -26 -15 -4
-8 -11 -15 -16 -15 -6 0 -17 -8 -25 -17 -8 -11 -11 -12 -7 -3 7 13 6 13 -12 0
-10 -8 -22 -19 -26 -25 -5 -6 -8 -6 -8 -1 0 6 -7 1 -16 -10 -8 -10 -13 -12 -9
-4 4 10 2 9 -8 -2 -8 -10 -19 -18 -26 -18 -6 0 -11 -4 -11 -10 0 -5 -6 -10
-13 -10 -7 0 -23 -9 -34 -19 -12 -11 -23 -18 -25 -15 -3 2 -13 -5 -23 -16 -10
-11 -24 -20 -32 -20 -7 0 -16 -7 -19 -15 -4 -8 -10 -13 -14 -10 -4 2 -15 -4
-25 -15 -10 -11 -24 -20 -31 -20 -7 0 -17 -6 -21 -13 -4 -8 -22 -22 -40 -32
-18 -10 -30 -22 -27 -27 3 -4 -3 -5 -12 -1 -12 4 -15 3 -10 -5 4 -7 1 -12 -8
-12 -9 0 -16 -4 -16 -10 0 -5 -7 -10 -15 -10 -8 0 -15 -4 -15 -10 0 -5 -4 -10
-9 -10 -10 0 -49 -31 -89 -70 -14 -14 -22 -18 -17 -10 4 8 -6 0 -24 -18 -17
-18 -31 -30 -31 -25 0 4 -7 -1 -15 -11 -8 -11 -15 -16 -15 -12 0 4 -11 -4 -23
-18 -13 -14 -27 -23 -30 -19 -4 3 -7 -1 -7 -10 0 -9 -6 -17 -14 -17 -8 0 -16
-7 -20 -15 -3 -8 -11 -14 -17 -13 -7 2 -18 -8 -26 -22 -7 -14 -13 -20 -13 -15
0 6 -5 2 -11 -7 -5 -10 -17 -18 -25 -18 -8 0 -13 -4 -10 -8 3 -5 -6 -15 -19
-22 -13 -7 -22 -17 -19 -22 5 -7 -10 -12 -29 -9 -5 1 -6 -3 -2 -9 3 -5 -1 -10
-10 -10 -9 0 -14 -3 -12 -7 5 -10 -30 -43 -37 -35 -3 3 -6 -2 -6 -12 0 -9 -4
-15 -9 -12 -5 3 -12 -1 -15 -10 -3 -9 -11 -12 -18 -8 -7 4 -10 3 -5 -1 9 -11
-43 -66 -55 -59 -5 3 -7 2 -6 -3 4 -12 -28 -54 -36 -46 -4 4 -9 -3 -13 -15 -3
-12 -9 -22 -14 -22 -15 0 -48 -33 -43 -42 3 -4 -3 -8 -12 -8 -10 0 -15 -3 -12
-6 4 -3 -18 -30 -48 -59 -30 -30 -54 -59 -54 -65 0 -5 -5 -9 -12 -7 -7 1 -12
-3 -13 -9 0 -6 -19 -32 -43 -59 -23 -26 -42 -51 -42 -57 0 -5 -4 -6 -10 -3 -6
3 -10 1 -10 -5 0 -6 -11 -23 -24 -37 -14 -15 -22 -31 -19 -36 3 -6 1 -7 -6 -3
-7 5 -15 -3 -22 -23 -6 -16 -16 -28 -22 -25 -7 2 -18 -10 -26 -28 -8 -18 -25
-42 -38 -54 -14 -13 -25 -26 -26 -31 -1 -4 -6 -7 -10 -5 -5 1 -6 -2 -2 -8 3
-5 1 -10 -5 -10 -6 0 -9 -4 -6 -9 3 -5 -1 -11 -9 -15 -8 -3 -15 -10 -15 -16 0
-5 -7 -18 -15 -27 -8 -10 -15 -21 -15 -26 0 -4 -12 -19 -26 -32 -15 -14 -23
-25 -19 -25 5 0 0 -7 -11 -15 -10 -8 -14 -15 -9 -15 6 0 5 -4 -2 -8 -6 -4 -13
-14 -15 -22 -2 -8 -12 -22 -23 -32 -11 -9 -16 -17 -10 -18 5 0 -1 -7 -13 -16
-12 -8 -20 -20 -17 -25 4 -5 -1 -12 -9 -15 -9 -3 -13 -10 -10 -15 3 -5 0 -9
-6 -9 -6 0 -8 -4 -5 -10 3 -5 1 -10 -5 -10 -6 0 -8 -4 -5 -10 3 -5 1 -10 -5
-10 -6 0 -16 -13 -21 -30 -6 -16 -16 -27 -21 -24 -6 4 -9 1 -6 -7 2 -7 -4 -22
-13 -33 -10 -10 -16 -22 -14 -26 3 -5 -2 -11 -10 -14 -8 -3 -14 -9 -14 -13 3
-12 -13 -47 -25 -55 -5 -3 -11 -14 -12 -24 -2 -9 -9 -21 -16 -25 -7 -5 -8 -9
-3 -9 6 0 2 -7 -9 -15 -10 -7 -15 -18 -11 -24 3 -6 1 -11 -5 -11 -6 0 -8 -4
-5 -10 3 -5 1 -10 -4 -10 -6 0 -11 -7 -11 -15 0 -8 -4 -15 -10 -15 -5 0 -10
-9 -10 -21 0 -11 -4 -17 -10 -14 -6 3 -7 -1 -4 -9 3 -9 1 -16 -6 -16 -6 0 -8
-5 -5 -10 3 -6 0 -13 -9 -16 -8 -3 -12 -12 -9 -20 3 -8 1 -14 -5 -14 -6 0 -13
-13 -17 -29 -3 -16 -13 -35 -21 -41 -7 -7 -12 -16 -9 -20 3 -5 -3 -16 -12 -26
-10 -10 -17 -18 -15 -18 8 -2 -11 -56 -19 -56 -5 0 -8 -3 -7 -7 4 -16 -24 -83
-35 -83 -8 0 -7 -3 1 -9 11 -7 10 -9 -3 -15 -9 -3 -13 -10 -10 -16 3 -5 2 -10
-4 -10 -5 0 -8 -11 -7 -25 2 -13 -1 -22 -5 -19 -8 5 -10 0 -9 -21 0 -3 -7 -19
-16 -36 -8 -17 -13 -33 -10 -37 3 -3 0 -12 -8 -21 -8 -9 -15 -20 -17 -26 -4
-24 -23 -73 -40 -107 -5 -11 -4 -18 4 -21 9 -4 9 -6 -1 -6 -7 -1 -10 -5 -7
-11 3 -5 2 -10 -4 -10 -6 0 -8 -7 -5 -15 4 -8 2 -15 -3 -15 -5 0 -10 -8 -11
-17 -4 -42 -9 -57 -20 -61 -6 -2 -8 -10 -5 -18 3 -8 -1 -22 -8 -31 -12 -14
-12 -16 1 -8 12 6 13 5 3 -6 -7 -7 -13 -23 -13 -36 0 -13 -4 -23 -9 -23 -6 0
-8 -9 -6 -20 2 -11 0 -22 -5 -25 -5 -3 -6 -13 -3 -22 4 -9 2 -14 -3 -11 -5 4
-10 -10 -12 -29 -1 -19 -5 -40 -9 -46 -4 -6 -8 -24 -10 -41 -2 -16 -9 -36 -16
-45 -9 -12 -9 -13 1 -7 6 4 12 2 12 -3 0 -6 -4 -11 -9 -11 -6 0 -10 -8 -10
-17 -1 -44 -4 -59 -15 -72 -9 -12 -8 -13 4 -6 13 8 13 6 1 -8 -7 -9 -11 -24
-7 -32 3 -9 -1 -18 -9 -21 -8 -4 -12 -10 -9 -15 3 -5 11 -6 17 -2 7 3 5 -2 -4
-13 -8 -10 -15 -31 -14 -46 0 -16 -3 -28 -7 -28 -4 0 -8 -5 -8 -11 0 -5 6 -7
13 -3 6 4 3 -3 -8 -16 -12 -14 -14 -20 -5 -15 13 8 13 7 1 -9 -12 -14 -12 -19
-2 -26 8 -4 9 -10 4 -13 -6 -4 -10 -21 -11 -38 0 -17 -5 -36 -10 -41 -6 -6 -7
-22 -2 -38 4 -15 4 -32 0 -36 -5 -5 -10 -34 -12 -64 -2 -30 -7 -58 -13 -62 -6
-5 -5 -8 2 -8 9 0 10 -7 5 -22 -4 -13 -8 -45 -7 -73 0 -27 -4 -53 -10 -57 -6
-5 -5 -8 3 -8 6 0 12 -5 12 -11 0 -5 -4 -8 -9 -4 -5 3 -12 1 -16 -5 -3 -5 -2
-10 2 -10 12 0 14 -38 2 -45 -14 -9 0 -27 14 -18 7 3 4 -3 -6 -14 -9 -11 -14
-23 -10 -27 11 -10 11 -46 0 -46 -5 0 -4 -7 3 -15 10 -12 10 -15 0 -15 -9 0
-10 -3 -1 -14 9 -10 7 -16 -5 -27 -14 -12 -14 -14 2 -26 10 -7 12 -13 6 -13
-12 0 -12 -34 0 -45 3 -4 3 -15 1 -26 -5 -16 -8 -18 -14 -7 -6 9 -9 9 -9 1 0
-6 5 -15 10 -18 8 -5 7 -12 -2 -23 -8 -10 -9 -13 -1 -9 6 4 14 3 18 -3 3 -5
-2 -10 -12 -10 -15 0 -16 -2 -3 -10 8 -5 11 -10 6 -10 -5 0 -3 -6 3 -14 9 -10
7 -16 -5 -27 -14 -12 -14 -14 2 -26 10 -7 12 -13 6 -13 -10 0 -10 -5 -1 -21 8
-16 8 -20 -1 -14 -9 6 -9 2 -1 -14 9 -16 9 -21 0 -21 -8 0 -8 -4 1 -15 10 -12
10 -15 0 -15 -10 0 -10 -3 -1 -14 8 -9 8 -16 2 -20 -14 -9 -2 -37 13 -29 6 3
3 -2 -6 -13 -14 -16 -15 -22 -3 -38 10 -13 11 -24 4 -37 -7 -14 -6 -19 3 -19
9 0 9 -3 -2 -10 -8 -5 -10 -10 -4 -10 6 0 10 -25 10 -60 -1 -33 3 -60 8 -60 5
0 2 -8 -5 -17 -8 -9 -9 -14 -3 -10 7 4 12 -8 13 -36 5 -111 7 -127 14 -127 4
0 6 -3 6 -7 -1 -5 0 -10 1 -13 1 -3 3 -34 4 -70 1 -36 7 -74 12 -85 5 -11 9
-29 9 -40 -1 -11 3 -26 8 -32 6 -9 5 -13 -4 -13 -10 0 -11 -2 -2 -8 7 -4 13
-24 15 -45 1 -20 5 -37 8 -37 5 0 11 -38 13 -80 0 -8 5 -18 11 -22 7 -5 6 -8
-4 -8 -12 0 -12 -2 -2 -9 8 -4 14 -28 15 -54 1 -25 5 -43 10 -40 6 4 11 -32 5
-40 -2 -2 4 -12 12 -22 9 -12 10 -16 2 -11 -7 4 -3 -9 8 -29 11 -20 16 -34 10
-30 -5 3 -10 1 -10 -4 0 -6 5 -11 11 -11 5 0 8 -4 5 -8 -3 -5 1 -20 8 -34 11
-20 11 -29 2 -39 -8 -9 -8 -10 3 -4 10 6 13 4 8 -7 -3 -9 -1 -20 4 -25 6 -6
13 -26 16 -44 3 -19 10 -37 16 -41 6 -4 8 -10 5 -14 -4 -4 -3 -14 2 -24 5 -9
11 -30 14 -45 3 -16 10 -33 16 -39 5 -5 10 -21 10 -34 0 -13 4 -21 8 -18 5 3
8 -5 7 -17 -2 -23 14 -67 24 -67 6 0 10 -19 12 -62 0 -10 6 -17 12 -15 7 1 11
-4 9 -12 -1 -7 3 -19 9 -27 7 -8 9 -17 6 -20 -3 -4 0 -13 8 -20 8 -8 12 -21 9
-29 -4 -8 -1 -15 5 -15 6 0 11 -9 11 -20 0 -11 5 -20 10 -20 6 0 10 -9 10 -20
0 -11 6 -20 13 -20 8 0 7 -4 -3 -10 -10 -6 -11 -10 -2 -10 6 0 12 -7 12 -16 0
-8 4 -13 9 -10 5 4 7 -4 3 -16 -3 -14 -1 -19 6 -14 8 4 10 2 6 -7 -3 -8 2 -17
11 -21 9 -3 13 -10 10 -16 -3 -6 1 -17 9 -26 9 -9 13 -20 10 -26 -4 -6 0 -16
8 -22 8 -6 16 -15 17 -21 4 -26 13 -45 22 -45 5 0 9 -11 9 -24 0 -13 7 -29 15
-36 8 -7 12 -16 9 -21 -3 -5 0 -9 5 -9 6 0 11 -9 11 -21 0 -11 5 -17 10 -14 6
3 10 -3 10 -14 0 -12 5 -21 11 -21 5 0 7 -4 4 -10 -3 -5 -1 -10 5 -10 7 0 10
-5 8 -12 -2 -6 4 -20 14 -30 10 -10 16 -23 13 -27 -2 -5 2 -12 11 -15 8 -3 13
-10 10 -15 -4 -5 1 -16 9 -24 8 -9 15 -20 15 -26 0 -6 5 -11 11 -11 5 0 8 -4
4 -9 -3 -5 -1 -12 5 -16 6 -4 7 -11 4 -17 -4 -6 -3 -8 3 -5 9 6 39 -44 31 -51
-1 -2 5 -8 15 -13 9 -6 15 -14 12 -20 -4 -5 -1 -9 4 -9 6 0 11 -7 11 -15 0 -9
7 -18 15 -21 8 -4 12 -10 10 -15 -3 -5 3 -16 14 -26 11 -9 18 -20 16 -24 -3
-4 2 -12 10 -19 8 -7 15 -19 15 -26 0 -8 7 -14 16 -14 8 0 13 -4 10 -8 -3 -5
8 -27 25 -50 17 -23 29 -44 29 -47 -1 -4 2 -10 6 -13 4 -4 4 -1 -1 7 -5 9 -4
12 3 7 7 -4 12 -14 12 -22 0 -8 5 -14 11 -14 5 0 7 -5 4 -10 -3 -6 1 -13 9
-16 9 -3 16 -10 16 -16 0 -5 6 -16 13 -23 28 -33 37 -45 32 -45 -3 0 0 -6 7
-14 7 -8 16 -12 20 -9 4 2 5 -4 1 -13 -4 -12 -3 -15 5 -10 7 4 12 1 12 -9 0
-8 7 -18 15 -21 8 -4 12 -10 9 -15 -3 -5 2 -12 10 -15 9 -3 16 -11 16 -18 0
-6 9 -18 20 -26 11 -8 20 -20 20 -27 0 -7 9 -18 20 -25 11 -7 20 -16 20 -21 0
-4 12 -19 26 -32 15 -14 24 -25 20 -25 -4 0 11 -18 34 -40 23 -22 38 -40 33
-40 -4 0 4 -11 20 -24 15 -13 27 -28 27 -35 0 -6 8 -11 17 -11 9 0 13 -3 10
-6 -3 -4 8 -20 26 -37 18 -16 31 -34 30 -38 -2 -4 6 -11 17 -14 11 -4 20 -10
20 -14 0 -13 97 -111 109 -111 7 0 10 -4 7 -8 -6 -10 30 -43 38 -35 3 4 6 1 6
-5 0 -15 127 -141 135 -134 3 3 5 -2 5 -11 0 -10 6 -16 13 -15 6 2 11 -3 9
-10 -1 -6 1 -11 5 -10 5 2 17 -6 29 -17 51 -50 138 -120 145 -118 5 2 5 -5 2
-14 -4 -10 -2 -14 4 -10 5 4 25 -7 43 -23 19 -17 38 -30 42 -30 5 0 6 -4 3
-10 -3 -5 1 -10 9 -10 9 0 16 -4 16 -10 0 -5 7 -10 15 -10 8 0 19 -9 25 -19 5
-11 19 -23 30 -26 11 -3 20 -13 20 -21 0 -8 5 -12 11 -9 5 4 19 -3 30 -16 10
-12 19 -19 19 -16 0 4 13 -7 28 -23 16 -16 32 -27 35 -23 4 3 7 1 7 -5 0 -7 7
-12 15 -12 8 0 15 -7 15 -15 0 -9 6 -12 15 -9 10 4 15 0 16 -12 0 -12 3 -14 6
-6 4 10 9 8 20 -7 8 -12 20 -21 27 -21 8 0 21 -12 30 -26 10 -14 23 -23 29
-21 7 2 20 -5 29 -15 9 -11 20 -19 25 -20 4 0 7 -4 5 -10 -1 -5 2 -7 7 -4 5 4
12 2 16 -4 4 -6 11 -8 16 -5 5 4 9 -2 9 -11 0 -10 3 -14 6 -11 4 3 18 -3 32
-13 13 -11 31 -20 38 -20 8 0 14 -4 14 -10 0 -5 7 -10 16 -10 8 0 12 -4 9 -10
-3 -5 3 -10 13 -10 11 0 22 -7 26 -15 3 -9 12 -12 22 -8 12 4 15 3 10 -5 -6
-10 8 -18 17 -9 3 2 25 -16 59 -48 11 -11 18 -14 13 -7 -6 11 -3 11 14 0 12
-7 21 -17 21 -21 0 -5 7 -7 15 -3 9 3 15 0 15 -10 0 -8 4 -13 9 -9 5 3 15 0
23 -7 7 -7 19 -14 27 -16 7 -1 20 -10 28 -18 9 -8 22 -13 29 -10 8 3 13 1 11
-3 -1 -5 3 -10 8 -12 6 -1 16 -9 23 -16 8 -7 18 -11 23 -8 5 4 9 1 9 -4 0 -6
7 -11 15 -11 8 0 15 -6 15 -12 0 -9 4 -8 10 2 7 11 10 11 10 2 0 -7 15 -19 34
-27 19 -8 38 -19 41 -25 4 -6 11 -8 16 -5 5 4 9 2 9 -3 0 -9 37 -25 53 -23 4
1 7 -4 7 -10 0 -5 4 -8 9 -5 5 4 11 1 13 -4 2 -6 13 -12 25 -13 12 0 19 -5 17
-9 -3 -4 0 -9 5 -9 6 -1 14 -3 19 -4 4 -2 17 -6 30 -10 12 -4 22 -12 22 -17 0
-5 5 -6 10 -3 6 3 10 2 10 -4 0 -6 7 -8 15 -5 8 4 15 1 15 -5 0 -6 9 -11 19
-11 11 0 23 -4 26 -10 3 -5 16 -10 28 -10 18 0 20 -2 7 -11 -12 -9 -11 -10 5
-6 11 2 26 -2 33 -10 7 -7 17 -11 23 -8 5 4 9 2 9 -4 0 -6 7 -7 17 -4 10 4 14
2 10 -4 -4 -6 2 -13 13 -16 13 -3 18 -1 13 6 -3 7 3 4 14 -5 11 -10 24 -18 30
-18 6 0 22 -9 35 -20 14 -10 27 -17 30 -15 3 3 22 -2 44 -12 21 -9 46 -18 54
-19 8 -2 16 -7 18 -13 2 -5 10 -7 18 -4 8 3 14 0 14 -6 0 -6 7 -8 17 -4 10 4
14 2 10 -4 -4 -6 3 -9 18 -7 15 1 25 -3 25 -11 0 -8 11 -12 31 -11 16 1 33 -2
36 -7 4 -6 0 -7 -8 -2 -8 5 -11 4 -6 -1 5 -5 12 -9 15 -9 4 0 13 -4 21 -9 11
-7 12 -6 6 5 -5 8 2 5 14 -6 13 -11 26 -19 30 -18 10 4 55 -9 68 -19 7 -5 17
-7 23 -3 5 3 10 1 10 -5 0 -7 7 -10 15 -6 8 3 15 1 15 -4 0 -6 8 -10 18 -10
10 0 24 -6 31 -12 11 -11 12 -10 6 2 -6 12 -5 13 6 3 7 -7 21 -13 31 -13 10 0
18 -4 18 -10 0 -5 14 -10 30 -10 17 0 30 -5 30 -12 0 -10 3 -9 9 1 5 8 10 9
12 2 2 -6 14 -12 26 -14 12 -2 26 -6 29 -10 4 -4 18 -7 31 -7 13 0 23 -4 23
-8 0 -4 8 -8 18 -9 18 -1 57 -10 57 -13 0 -1 11 -3 23 -4 13 -2 28 -9 33 -17
7 -12 9 -12 9 1 0 9 3 11 8 5 4 -5 18 -12 32 -13 14 -2 26 -8 28 -12 2 -4 17
-6 34 -3 20 3 28 1 24 -6 -4 -7 -1 -8 8 -5 10 4 16 1 16 -7 0 -11 3 -11 10 1
8 12 10 12 10 1 0 -8 3 -11 7 -8 3 4 14 0 24 -9 11 -10 19 -12 24 -5 4 8 12 8
24 1 11 -5 33 -11 50 -12 17 -1 31 -6 31 -10 0 -4 9 -5 20 -3 11 2 20 -2 20
-8 0 -7 4 -6 10 3 7 11 10 11 10 2 0 -7 5 -10 10 -7 6 3 10 2 10 -3 0 -4 15
-8 33 -7 17 0 38 -3 45 -8 6 -5 12 -6 12 -2 0 4 7 2 15 -5 12 -10 15 -10 15 1
0 12 2 12 9 0 5 -8 28 -14 54 -15 25 0 43 -4 40 -8 -4 -7 29 -13 51 -9 4 1 15
-4 24 -11 12 -10 14 -10 8 0 -4 6 -2 12 3 12 6 0 11 -4 11 -9 0 -6 8 -10 18
-10 24 0 50 -6 58 -14 4 -4 14 -1 22 5 11 10 16 8 24 -6 8 -13 13 -15 24 -5 8
6 14 7 14 2 0 -6 11 -9 25 -8 14 2 25 -2 25 -8 0 -8 3 -8 8 -2 9 13 35 19 28
6 -6 -9 2 -11 92 -13 23 -1 42 -6 42 -11 0 -5 8 -3 17 4 11 10 14 10 9 2 -7
-13 10 -16 92 -15 18 0 30 -4 27 -9 -4 -5 -2 -9 4 -9 5 0 13 5 17 11 4 7 9 8
13 1 3 -6 29 -11 56 -13 28 -1 56 -7 64 -13 11 -8 13 -8 8 1 -5 8 0 11 13 10
11 -1 20 -4 20 -7 0 -4 19 -7 43 -7 109 -2 167 -8 167 -18 0 -5 5 -3 10 5 8
12 10 12 10 1 0 -10 3 -11 13 -2 8 6 17 8 21 4 3 -4 16 -8 27 -10 14 -2 18 1
13 9 -6 9 -3 9 9 -1 9 -7 23 -11 31 -8 7 3 19 0 25 -6 8 -8 11 -8 11 1 0 6 6
9 13 6 7 -2 30 -6 52 -7 22 -1 46 -6 54 -11 10 -6 12 -5 7 2 -8 14 20 12 43
-2 10 -6 12 -5 7 2 -4 7 -1 12 9 12 9 0 14 -4 11 -8 -2 -4 4 -8 14 -8 10 0 16
4 14 8 -3 4 0 8 5 8 6 0 11 -5 11 -11 0 -8 5 -7 15 1 12 10 19 10 27 2 8 -8
17 -8 31 -1 13 8 22 8 30 0 15 -15 30 -14 21 2 -6 9 -5 9 7 0 21 -17 1477 -17
1498 0 11 9 13 9 8 0 -10 -16 212 -16 232 0 9 8 12 8 8 1 -9 -16 212 -17 232
-1 11 9 13 9 8 0 -10 -16 212 -16 232 0 9 8 12 8 8 1 -9 -16 212 -17 232 -1
11 9 13 9 8 0 -10 -16 212 -16 232 0 9 8 12 8 8 1 -9 -16 212 -17 232 -1 11 9
13 9 8 0 -10 -16 212 -16 232 0 9 8 12 8 8 1 -9 -16 212 -17 232 -1 11 9 13 9
8 0 -10 -16 212 -16 232 0 11 9 13 9 8 0 -10 -17 1651 -17 1672 0 11 9 13 9 8
0 -10 -16 212 -16 232 0 9 8 12 8 8 1 -9 -16 212 -17 232 -1 11 9 13 9 8 0
-10 -16 212 -16 232 0 9 8 12 8 8 1 -9 -16 212 -17 232 -1 11 9 13 9 8 0 -10
-16 212 -16 232 0 9 8 12 8 8 1 -9 -16 212 -17 232 -1 11 9 13 9 8 0 -10 -16
212 -16 232 0 9 8 12 8 8 1 -9 -16 212 -17 232 -1 11 9 13 9 8 0 -10 -16 212
-16 232 0 11 9 13 9 8 1 -5 -9 107 -12 437 -13 388 0 445 2 450 15 4 10 2 13
-7 8 -6 -4 -3 3 8 16 11 13 15 20 8 17 -8 -5 -11 0 -10 13 1 11 6 20 12 20 5
0 3 5 -5 10 -13 9 -13 10 0 10 13 0 13 2 1 9 -13 8 -13 12 0 27 8 10 9 15 3
11 -7 -4 -11 2 -11 18 0 16 4 22 11 18 7 -4 6 -1 -1 8 -9 11 -9 19 -2 26 7 7
5 14 -6 23 -14 12 -14 15 2 33 10 11 12 17 5 13 -16 -10 -13 25 3 36 6 5 4 8
-5 8 -13 0 -13 1 0 10 10 6 11 10 3 10 -7 0 -13 7 -13 15 0 8 6 15 13 15 7 0
8 3 2 8 -16 11 -19 46 -3 36 10 -6 11 -5 1 7 -9 11 -9 19 -2 26 7 7 5 14 -6
23 -14 12 -14 15 2 33 10 11 13 17 6 14 -8 -5 -11 0 -10 13 1 11 6 20 12 20 5
0 3 5 -5 10 -11 7 -11 10 -2 10 7 0 10 5 7 10 -4 6 -12 7 -18 3 -7 -3 -3 4 8
17 11 13 14 20 7 16 -16 -10 -13 25 3 36 6 5 6 8 -1 8 -6 0 -11 11 -11 25 0
16 4 22 11 18 6 -4 5 1 -3 10 -9 12 -10 17 -2 17 7 0 9 5 6 10 -4 6 -12 7 -18
3 -7 -3 -3 4 8 17 11 13 14 20 7 16 -16 -10 -13 25 3 36 6 5 6 8 -1 8 -6 0
-11 11 -11 25 0 16 4 22 11 18 6 -4 5 1 -3 10 -9 12 -10 17 -2 17 7 0 9 5 6
10 -4 6 -12 7 -18 3 -7 -3 -3 4 8 17 11 13 14 20 7 16 -16 -10 -13 25 3 36 6
5 6 8 -1 8 -6 0 -11 11 -11 25 0 16 4 22 11 18 6 -4 5 1 -3 10 -9 12 -10 17
-2 17 7 0 9 5 6 10 -4 6 -12 7 -18 3 -7 -3 -3 4 8 17 11 13 14 20 7 16 -16
-10 -13 25 3 36 6 5 6 8 -1 8 -6 0 -11 11 -11 25 0 15 4 22 11 18 7 -4 7 -2
-1 7 -7 8 -9 20 -3 35 6 15 4 27 -3 34 -9 9 -8 14 3 21 12 8 13 10 1 10 -8 0
-11 3 -8 6 3 4 1 16 -5 28 -10 20 -10 20 7 6 17 -14 18 -13 8 5 -11 24 -11 35
1 54 6 10 6 12 -3 7 -8 -5 -12 -3 -10 5 3 28 -2 38 -36 72 -19 19 -31 38 -27
42 4 5 2 5 -4 2 -12 -7 -46 28 -37 37 4 3 -1 6 -10 6 -8 0 -19 9 -22 20 -4 11
-11 18 -16 15 -5 -4 -9 -1 -9 5 0 6 -18 29 -41 51 -22 21 -37 39 -33 39 4 0
-5 10 -19 23 -15 12 -27 28 -27 35 0 7 -7 12 -16 12 -8 0 -13 4 -10 8 3 5 -4
14 -14 22 -10 8 -17 17 -14 22 3 4 -2 8 -10 8 -9 0 -16 6 -16 14 0 8 -12 24
-26 35 -15 12 -23 25 -18 32 4 7 3 10 -2 7 -5 -3 -15 0 -22 8 -7 8 -9 14 -5
14 4 1 -3 10 -16 20 -13 11 -21 20 -17 20 3 0 -10 16 -29 36 -19 20 -35 39
-35 43 0 5 -11 20 -25 35 -14 15 -25 34 -25 42 0 7 -6 14 -14 14 -8 0 -17 8
-21 19 -5 16 -16 31 -55 78 -5 7 -10 16 -10 21 0 5 -7 15 -15 22 -8 7 -12 17
-8 23 3 5 1 7 -5 3 -6 -3 -16 7 -24 24 -7 16 -16 30 -20 30 -5 0 -8 7 -8 16 0
8 -5 12 -10 9 -5 -3 -10 3 -10 14 0 12 -4 21 -8 21 -5 0 -15 12 -23 28 -8 15
-16 29 -19 32 -14 14 -50 70 -52 82 -2 7 -11 21 -21 30 -10 9 -19 20 -20 25
-1 4 -4 7 -7 6 -3 -1 -7 8 -7 20 -1 12 -8 26 -15 32 -7 5 -14 17 -16 25 -2 8
-9 18 -15 22 -7 4 -8 8 -3 8 5 0 -1 9 -14 20 -15 13 -18 20 -9 20 10 1 10 3
-2 10 -9 5 -20 21 -23 35 -4 14 -11 25 -16 25 -6 0 -10 9 -10 21 0 11 -4 17
-10 14 -9 -5 -15 15 -11 38 0 4 -3 7 -9 7 -5 0 -10 7 -10 15 0 8 -3 15 -7 15
-10 0 -33 49 -33 68 0 7 -4 10 -10 7 -5 -3 -10 3 -10 14 0 12 -4 21 -10 21 -5
0 -10 9 -10 20 0 11 -4 20 -10 20 -5 0 -10 9 -10 20 0 11 -4 20 -10 20 -5 0
-10 9 -10 20 0 11 -5 20 -11 20 -5 0 -8 4 -4 9 3 5 -2 16 -10 24 -8 9 -15 20
-15 26 0 13 -22 54 -33 62 -5 3 -8 8 -6 10 5 9 -13 49 -22 49 -6 0 -8 4 -5 9
6 10 -16 61 -26 61 -4 0 -5 7 -2 15 4 8 1 15 -6 15 -6 0 -8 5 -5 10 3 6 1 10
-4 10 -6 0 -10 3 -9 8 1 4 -4 20 -10 35 -7 16 -12 33 -12 38 0 6 -5 7 -11 3
-8 -4 -9 0 -4 15 4 12 2 21 -4 21 -6 0 -10 3 -10 8 3 18 -2 33 -9 28 -5 -3 -8
5 -7 17 1 12 -4 28 -12 35 -7 8 -11 17 -8 22 3 5 -1 11 -7 13 -10 4 -10 6 0 6
10 1 10 5 -2 17 -9 8 -14 20 -11 25 4 5 2 9 -3 9 -4 0 -15 23 -22 50 -7 28
-18 50 -24 50 -6 0 -5 4 2 9 11 7 11 9 -1 14 -9 3 -13 16 -12 31 2 14 -2 29
-7 33 -7 4 -8 1 -3 -7 5 -8 4 -11 -3 -7 -5 4 -8 16 -5 27 3 12 0 20 -6 20 -7
0 -10 4 -7 8 3 5 -1 21 -9 36 -10 18 -10 24 -2 19 8 -5 8 -2 -1 9 -15 18 -24
51 -26 89 0 15 -6 25 -11 22 -6 -2 -12 13 -13 34 -2 20 -8 43 -13 50 -6 6 -8
17 -4 23 3 5 2 10 -4 10 -6 0 -8 7 -5 15 4 8 1 15 -4 15 -6 0 -11 8 -10 18 0
9 -3 28 -7 42 -3 14 -8 36 -11 50 -3 13 -8 27 -12 30 -4 3 -7 15 -6 28 1 12
-4 22 -10 22 -6 0 -4 5 4 10 8 5 10 10 4 10 -6 0 -11 6 -12 13 -2 22 -7 42
-16 56 -6 10 -5 12 2 7 17 -10 15 0 -4 18 -10 11 -11 16 -3 16 7 0 5 8 -7 22
-10 12 -14 18 -7 15 8 -5 11 0 10 12 0 11 -5 17 -10 14 -5 -3 -7 3 -6 13 2 11
0 25 -4 32 -5 7 -3 12 3 12 7 0 5 7 -4 16 -18 18 -22 39 -5 28 8 -5 8 -1 0 13
-6 11 -7 23 -4 27 3 3 1 6 -5 6 -7 0 -11 3 -11 8 1 4 1 9 0 12 -1 3 -4 24 -5
46 -2 23 -6 47 -10 53 -4 6 -2 11 4 11 7 0 5 7 -4 16 -18 17 -21 28 -6 19 6
-3 10 -1 10 4 0 6 -4 11 -9 11 -6 0 -8 9 -6 20 2 11 -1 22 -6 26 -6 4 -6 11 2
20 7 8 7 14 1 14 -5 0 -13 7 -16 16 -3 8 -2 12 4 9 6 -3 10 -1 10 4 0 6 -4 11
-8 11 -4 0 -7 23 -6 50 0 28 -2 50 -6 50 -5 0 -11 7 -14 16 -3 9 -2 12 5 9 6
-4 7 3 3 21 -4 16 -7 43 -7 61 0 18 -5 33 -10 33 -5 0 -4 7 3 15 8 10 9 15 2
15 -6 0 -9 7 -6 15 4 8 0 23 -7 32 -10 11 -11 17 -3 20 7 2 9 17 4 41 -3 21
-5 52 -4 70 1 17 -2 35 -7 38 -5 3 -4 14 2 26 7 12 7 23 2 27 -12 7 -11 61 1
80 6 9 5 12 -1 8 -7 -4 -12 8 -15 33 -2 22 1 42 7 44 6 3 4 9 -5 15 -10 7 -11
11 -3 11 7 0 10 6 7 14 -10 27 -9 356 1 356 6 0 4 4 -4 9 -11 7 -11 9 0 14 12
4 11 7 -1 16 -12 8 -12 11 -1 11 11 0 11 3 1 15 -7 8 -8 15 -3 15 4 0 8 25 8
56 -1 30 3 58 7 60 5 3 5 11 1 17 -11 17 -13 38 -3 32 5 -3 8 4 7 15 -1 11 -5
20 -10 20 -5 0 -4 6 2 14 6 7 10 24 7 37 -2 13 0 33 4 45 5 11 4 28 -2 37 -7
13 -5 19 6 23 9 3 13 10 10 15 -3 5 -11 6 -17 2 -7 -3 -3 3 7 15 12 14 14 22
7 22 -7 0 -9 5 -6 11 4 6 9 29 11 52 2 23 7 50 10 60 4 11 2 17 -3 14 -5 -4
-10 0 -10 8 0 8 4 12 8 10 10 -7 15 14 14 72 0 28 4 49 9 46 4 -3 5 5 1 17 -6
17 -4 21 6 14 12 -6 12 -5 0 9 -7 9 -9 17 -4 17 5 0 9 18 9 39 -1 22 2 37 6
35 5 -3 8 2 8 11 0 10 -5 14 -12 10 -7 -4 -6 -1 2 7 8 7 14 27 13 46 -1 17 3
30 7 27 5 -3 7 6 4 21 -3 19 -1 24 8 18 10 -5 10 -4 1 6 -8 9 -9 19 -3 31 10
17 20 70 23 119 2 19 -3 26 -22 28 -17 3 -21 0 -15 -10 6 -10 5 -11 -7 -2 -17
14 -61 25 -54 14 7 -12 -48 -9 -64 4 -11 8 -13 8 -8 0 8 -14 -51 -13 -73 1 -8
5 -11 4 -7 -2 4 -6 0 -14 -9 -17 -9 -4 -13 -2 -8 5 4 8 -7 9 -36 5 -28 -4 -49
-1 -58 7 -13 9 -14 9 -8 0 4 -8 1 -13 -9 -13 -10 0 -14 5 -9 13 4 6 -1 4 -11
-5 -14 -13 -21 -14 -37 -5 -15 10 -21 9 -28 -3 -5 -8 -10 -10 -10 -5 0 13 -47
18 -55 6 -8 -13 -46 -1 -38 13 3 6 -4 2 -17 -9 -13 -11 -20 -14 -16 -7 6 10
-4 11 -44 7 -41 -5 -50 -3 -44 7 6 10 5 11 -7 1 -12 -10 -18 -10 -29 0 -8 8
-11 8 -7 1 4 -7 0 -15 -9 -18 -9 -4 -13 -2 -8 5 4 8 -7 9 -36 5 -28 -4 -49 -1
-58 7 -13 9 -14 9 -8 0 4 -8 1 -13 -9 -13 -10 0 -14 5 -9 13 4 6 -1 4 -11 -5
-14 -13 -21 -14 -37 -5 -15 10 -21 9 -28 -3 -5 -8 -10 -10 -10 -5 0 13 -47 18
-55 6 -8 -13 -46 -1 -38 13 3 6 -4 2 -17 -9 -13 -11 -20 -14 -16 -7 6 10 -4
11 -44 7 -41 -5 -50 -3 -44 7 6 10 5 11 -7 1 -12 -10 -18 -10 -29 0 -8 8 -11
8 -7 1 4 -7 0 -15 -9 -18 -9 -4 -13 -2 -8 5 4 8 -7 9 -36 5 -28 -4 -49 -1 -58
7 -13 9 -14 9 -8 0 4 -7 3 -13 -1 -13 -5 0 -15 6 -22 13 -9 7 -11 8 -7 0 6
-11 -53 -11 -73 1 -5 4 -13 1 -17 -5 -5 -8 -3 -9 6 -4 9 5 11 4 6 -4 -4 -6
-13 -8 -19 -4 -7 4 -21 8 -32 8 -11 0 -26 5 -34 9 -9 6 -12 5 -8 -1 4 -6 0
-14 -9 -17 -9 -4 -13 -2 -8 5 4 8 -7 9 -36 5 -28 -4 -49 -1 -58 7 -13 9 -14 9
-8 0 4 -8 1 -13 -9 -13 -10 0 -14 5 -9 13 4 6 -1 4 -11 -5 -14 -13 -21 -14
-37 -5 -15 10 -21 9 -28 -3 -5 -8 -10 -10 -10 -5 0 13 -47 18 -55 6 -8 -13
-46 -1 -38 13 3 6 -4 2 -17 -9 -13 -11 -20 -14 -16 -7 6 10 -4 11 -44 7 -41
-5 -50 -3 -44 7 6 10 5 11 -7 1 -12 -10 -18 -10 -29 0 -8 8 -11 8 -7 1 4 -7 0
-15 -9 -18 -9 -4 -13 -2 -8 5 4 8 -7 9 -36 5 -28 -4 -49 -1 -58 7 -13 9 -14 9
-8 0 4 -8 1 -13 -9 -13 -10 0 -14 5 -9 13 4 6 -1 4 -11 -5 -14 -13 -21 -14
-37 -5 -15 10 -21 9 -28 -3 -5 -8 -10 -10 -10 -5 0 13 -47 18 -55 6 -8 -13
-46 -1 -38 13 3 6 -4 2 -17 -9 -13 -11 -20 -14 -16 -7 6 10 -4 11 -44 7 -41
-5 -50 -3 -44 7 6 10 5 11 -7 1 -12 -10 -18 -10 -29 0 -8 8 -11 8 -7 1 4 -7 0
-15 -9 -18 -9 -4 -13 -2 -8 5 4 8 -7 9 -36 5 -28 -4 -49 -1 -58 7 -10 7 -13 8
-9 1 4 -7 0 -15 -9 -18 -8 -3 -13 -2 -10 3 3 5 -3 11 -14 14 -11 3 -18 2 -15
-3 7 -12 -48 -9 -64 4 -11 8 -13 8 -8 0 8 -14 -51 -13 -73 1 -8 5 -11 4 -7 -2
4 -6 0 -14 -9 -17 -9 -4 -13 -2 -8 5 4 8 -7 9 -36 5 -28 -4 -49 -1 -58 7 -13
9 -14 9 -8 0 4 -8 1 -13 -9 -13 -10 0 -14 5 -9 13 4 6 -1 4 -11 -5 -14 -13
-21 -14 -37 -5 -15 10 -21 9 -28 -3 -5 -8 -10 -10 -10 -5 0 13 -47 18 -55 6
-8 -13 -46 -1 -38 13 3 6 -4 2 -17 -9 -13 -11 -20 -14 -16 -7 6 10 -4 11 -44
7 -41 -5 -50 -3 -44 7 6 10 5 11 -7 1 -12 -10 -18 -10 -29 0 -8 8 -11 8 -7 1
4 -7 0 -15 -9 -18 -9 -4 -13 -2 -8 5 4 8 -7 9 -36 5 -28 -4 -49 -1 -58 7 -13
9 -14 9 -8 0 4 -7 3 -13 -1 -13 -5 0 -15 6 -22 13 -9 7 -11 8 -7 0 6 -11 -53
-11 -73 1 -5 4 -13 1 -17 -5 -5 -8 -3 -9 6 -4 9 5 11 4 6 -4 -4 -6 -13 -8 -19
-4 -22 13 -35 11 -32 -6 1 -9 -3 -19 -9 -23 -6 -5 -7 -8 -1 -8 6 0 9 -78 8
-217 -1 -141 2 -223 9 -231 8 -9 7 -11 -5 -6 -14 5 -15 1 -8 -24 6 -20 5 -34
-2 -42 -9 -10 -8 -11 7 -6 19 6 19 6 3 -12 -9 -10 -14 -22 -11 -25 10 -9 9
-182 -1 -197 -6 -10 -4 -12 10 -6 13 5 15 3 8 -6 -5 -7 -9 -33 -9 -58 1 -25
-3 -48 -9 -52 -6 -5 -5 -8 2 -8 7 0 10 -7 7 -15 -4 -8 0 -23 7 -32 8 -10 9
-14 2 -10 -9 6 -11 -28 -11 -136 1 -79 -2 -149 -7 -157 -6 -10 -4 -12 10 -6
13 5 15 3 8 -6 -6 -7 -10 -59 -10 -114 0 -56 -4 -107 -8 -114 -6 -10 -3 -12
10 -6 18 6 18 6 2 -12 -9 -10 -14 -22 -11 -25 10 -9 9 -182 -1 -197 -6 -10 -4
-12 10 -6 14 5 15 3 7 -6 -13 -17 -14 -299 0 -316 8 -9 7 -11 -7 -6 -13 5 -16
4 -10 -5 4 -7 7 -77 7 -154 0 -85 4 -147 10 -155 8 -9 7 -11 -6 -6 -9 3 -16 1
-16 -5 0 -6 4 -11 8 -11 5 0 7 -21 5 -46 -2 -28 1 -53 9 -62 9 -11 9 -14 1 -9
-9 6 -12 -7 -11 -45 0 -55 13 -92 27 -83 16 9 82 14 76 5 -3 -5 7 -6 22 -2 25
7 123 8 148 2 27 -7 56 1 49 13 -4 6 2 3 14 -7 12 -11 22 -15 22 -10 0 11 115
12 126 2 4 -4 13 0 21 10 8 9 12 11 8 5 -4 -9 5 -12 35 -9 22 2 38 1 36 -3 -3
-4 17 -4 44 -1 26 3 58 3 70 -2 12 -5 19 -4 15 2 -6 9 59 5 76 -6 5 -3 9 -1 9
4 0 10 30 9 48 -2 6 -4 12 -3 12 1 0 9 98 8 107 -1 3 -3 12 2 20 12 8 9 12 11
8 5 -4 -9 5 -12 35 -9 22 2 38 0 35 -4 -3 -5 7 -5 22 -2 25 7 123 8 148 2 27
-7 56 1 49 13 -4 6 2 3 14 -7 12 -11 22 -15 22 -10 0 10 187 10 196 1 4 -3 16
-2 29 3 15 6 27 4 35 -3 10 -9 11 -9 5 2 -6 11 -4 13 9 8 10 -4 28 -7 40 -7
21 0 22 -3 16 -50 -4 -27 -3 -50 0 -50 4 0 7 -7 7 -15 0 -8 -5 -15 -11 -15 -6
0 -4 -5 4 -10 11 -7 11 -10 2 -10 -7 0 -10 -5 -7 -10 9 -15 10 -104 1 -118 -4
-7 -2 -12 4 -12 7 0 8 -6 1 -19 -6 -10 -7 -21 -4 -25 12 -11 12 -36 0 -36 -7
0 -8 -3 -1 -10 6 -6 8 -31 4 -60 -4 -28 -4 -50 -1 -50 8 0 5 -65 -4 -79 -3 -6
-2 -11 3 -11 5 0 9 -7 9 -15 0 -8 -5 -15 -11 -15 -6 0 -4 -5 4 -10 9 -6 11
-10 3 -10 -7 0 -10 -7 -7 -15 9 -23 10 -115 1 -115 -4 0 -4 -7 0 -15 5 -8 6
-44 3 -80 -3 -35 -3 -72 0 -81 3 -8 3 -40 0 -70 -3 -30 -3 -54 0 -54 4 0 7 -7
7 -15 0 -8 -5 -15 -11 -15 -6 0 -4 -5 4 -10 11 -7 11 -10 2 -10 -7 0 -10 -5
-7 -10 9 -15 10 -104 1 -118 -4 -7 -2 -12 4 -12 7 0 8 -6 1 -19 -6 -10 -7 -21
-4 -25 12 -11 12 -36 0 -36 -7 0 -8 -3 -1 -10 6 -6 8 -31 4 -60 -4 -28 -4 -50
-1 -50 8 0 5 -65 -4 -79 -3 -6 -2 -11 3 -11 5 0 9 -7 9 -15 0 -8 -5 -15 -11
-15 -6 0 -4 -5 4 -10 9 -6 11 -10 3 -10 -9 0 -10 -7 -4 -22 4 -12 5 -37 1 -55
-5 -18 -4 -33 1 -33 4 0 6 -6 3 -14 -3 -8 -14 -13 -25 -11 -10 2 -21 0 -24 -5
-4 -6 -14 -5 -25 2 -14 9 -22 9 -33 -1 -9 -7 -18 -8 -21 -3 -6 10 -48 8 -67
-4 -7 -4 -10 -3 -6 3 4 6 -35 9 -103 9 -70 -1 -106 -4 -102 -11 3 -5 -2 -4
-12 4 -15 13 -19 13 -27 0 -5 -8 -9 -9 -9 -4 0 6 -9 11 -20 12 -12 1 -18 -3
-14 -9 4 -6 -1 -6 -14 1 -27 14 -45 14 -36 -1 5 -7 3 -8 -7 -2 -21 13 -189 13
-181 0 3 -6 -2 -5 -12 3 -15 13 -19 13 -27 0 -5 -8 -9 -9 -9 -4 0 6 -9 11 -20
12 -12 1 -18 -3 -14 -9 4 -6 -1 -6 -14 1 -11 6 -29 11 -39 11 -15 0 -16 -2 -3
-10 8 -5 10 -10 4 -10 -6 0 -14 3 -18 8 -12 11 -146 9 -146 -3 0 -6 -3 -5 -8
1 -7 12 -100 13 -118 1 -6 -3 -14 -3 -18 1 -13 12 -66 11 -59 -2 4 -6 -1 -5
-10 3 -14 11 -20 11 -34 0 -11 -10 -14 -10 -9 -2 5 10 -1 12 -21 10 -16 -2
-34 -6 -40 -10 -5 -3 -13 -3 -17 1 -12 11 -115 9 -109 -3 3 -5 0 -4 -8 3 -17
15 -43 16 -33 0 5 -8 3 -8 -7 -2 -19 12 -149 12 -149 -1 0 -6 -3 -5 -8 1 -7
12 -100 13 -118 1 -6 -3 -14 -3 -18 1 -13 12 -66 11 -59 -2 4 -6 -1 -5 -10 3
-14 11 -20 11 -34 0 -11 -10 -14 -10 -9 -2 5 10 -1 12 -21 10 -16 -2 -34 -6
-40 -10 -5 -3 -13 -3 -17 1 -12 11 -115 9 -109 -3 3 -5 0 -4 -8 3 -17 15 -43
16 -33 0 5 -8 3 -8 -7 -2 -19 12 -149 12 -149 -1 0 -6 -3 -5 -8 1 -7 12 -100
13 -118 1 -6 -3 -14 -3 -18 1 -13 12 -66 11 -59 -2 4 -6 -1 -5 -10 3 -14 11
-20 11 -34 0 -11 -10 -14 -10 -9 -2 5 10 -1 12 -21 10 -16 -2 -34 -6 -40 -10
-5 -3 -13 -3 -17 1 -12 11 -115 9 -109 -3 3 -5 0 -4 -8 3 -17 15 -43 16 -33 0
5 -8 3 -8 -7 -2 -19 12 -149 12 -149 -1 0 -6 -3 -5 -8 1 -7 12 -100 13 -118 1
-6 -3 -14 -3 -18 1 -13 12 -66 11 -59 -2 4 -6 -1 -5 -10 3 -14 11 -20 11 -34
0 -11 -10 -14 -10 -9 -2 5 10 -1 12 -21 10 -16 -2 -34 -6 -40 -10 -5 -3 -13
-3 -17 1 -11 11 -115 9 -109 -2 4 -5 1 -6 -8 0 -20 13 -219 12 -211 -1 3 -5
-2 -4 -12 4 -15 13 -19 13 -27 0 -5 -8 -9 -9 -9 -4 0 6 -9 11 -20 12 -12 1
-18 -3 -14 -9 4 -6 -1 -6 -14 1 -27 14 -45 14 -36 -1 5 -7 3 -8 -7 -2 -21 13
-189 13 -181 0 3 -6 -2 -5 -12 3 -15 13 -19 13 -27 0 -5 -8 -9 -9 -9 -4 0 6
-9 11 -20 12 -12 1 -18 -3 -14 -9 4 -6 -1 -6 -14 1 -26 14 -45 14 -37 1 3 -5
1 -10 -4 -10 -6 0 -11 4 -11 9 0 10 -100 8 -117 -2 -5 -3 -13 -3 -17 1 -13 12
-66 11 -59 -2 4 -6 -1 -5 -10 3 -14 11 -20 11 -34 0 -11 -10 -14 -10 -9 -2 5
10 -1 12 -21 10 -16 -2 -34 -6 -40 -10 -5 -3 -13 -3 -17 1 -12 11 -146 8 -146
-3 0 -6 -3 -6 -8 0 -9 13 -122 14 -122 2 0 -5 -6 -5 -12 1 -7 5 -33 9 -58 8
-25 -1 -55 1 -67 6 -15 5 -23 4 -23 -4 0 -6 -10 -3 -22 8 -12 10 -18 14 -15 7
5 -8 -2 -11 -22 -11 -19 1 -28 5 -24 12 4 6 -1 5 -11 -3 -15 -13 -19 -13 -27
0 -7 12 -9 12 -9 -1 0 -12 -2 -12 -9 -2 -4 8 -12 14 -16 14 -4 0 -12 -6 -16
-14 -6 -9 -9 -10 -9 -1 0 8 -16 12 -50 10 -39 -2 -50 1 -51 13 0 11 -2 11 -6
2 -4 -10 -8 -10 -19 -1 -9 8 -14 8 -14 1 0 -8 -9 -8 -30 0 -17 5 -37 8 -44 5
-8 -3 -17 -1 -20 6 -3 8 -5 8 -5 -2 -1 -10 -7 -10 -27 4 -15 9 -23 12 -20 6 4
-6 2 -11 -3 -11 -6 0 -11 4 -11 8 0 5 -18 8 -40 8 -22 -1 -40 2 -40 6 0 4 -9
5 -20 3 -11 -2 -20 1 -20 7 0 6 -10 8 -24 4 -14 -3 -28 -1 -31 4 -4 6 -15 8
-26 5 -11 -4 -19 -2 -19 5 0 7 -12 9 -30 6 -17 -2 -30 0 -30 6 0 6 -7 8 -15 4
-8 -3 -15 -2 -15 3 0 4 -10 7 -22 6 -13 -1 -26 3 -30 8 -3 6 -19 12 -35 13
-29 2 -61 9 -94 19 -10 4 -31 8 -47 10 -15 1 -26 8 -25 13 2 6 -5 11 -15 11
-24 0 -54 6 -77 15 -35 14 -50 19 -60 21 -5 2 -34 13 -64 24 -30 12 -60 20
-67 17 -8 -3 -13 0 -11 7 1 7 -4 11 -12 9 -8 -2 -17 2 -21 7 -3 6 -17 12 -30
13 -14 2 -28 8 -32 13 -4 6 -13 10 -20 10 -7 1 -12 6 -11 13 2 6 -4 9 -12 6
-8 -4 -27 2 -41 11 -18 12 -24 13 -19 4 3 -8 0 -6 -9 5 -8 10 -19 15 -25 11
-6 -3 -11 -1 -11 5 0 6 -4 8 -10 5 -5 -3 -10 -1 -10 4 0 6 -9 11 -20 11 -11 0
-20 5 -20 10 0 6 -9 10 -20 10 -11 0 -20 5 -20 10 0 6 -7 10 -16 10 -8 0 -22
7 -31 15 -8 8 -19 13 -24 10 -5 -4 -9 -1 -9 4 0 6 -9 11 -20 11 -11 0 -20 7
-20 15 0 8 -3 14 -7 13 -13 -3 -53 13 -53 21 0 4 -16 13 -35 20 -19 7 -33 17
-30 22 4 5 -3 9 -14 9 -12 0 -21 5 -21 10 0 6 -6 10 -14 10 -8 0 -16 4 -18 9
-1 5 -10 11 -18 13 -8 2 -22 11 -31 21 -9 9 -24 17 -33 17 -9 0 -15 5 -14 12
2 7 -2 12 -8 13 -6 0 -18 7 -27 15 -33 30 -46 40 -54 40 -5 0 -27 18 -51 40
-23 22 -46 40 -51 40 -5 0 -12 7 -15 16 -3 8 -9 13 -13 11 -10 -6 -34 19 -26
27 4 3 0 6 -7 6 -7 0 -35 23 -62 50 -27 28 -54 50 -59 50 -6 0 -7 5 -4 10 3 6
-1 10 -10 10 -9 0 -14 4 -11 9 3 5 -1 12 -10 15 -8 3 -12 11 -8 17 4 7 3 9 -3
6 -11 -7 -55 38 -46 47 4 3 -1 6 -10 6 -8 0 -19 9 -22 20 -3 11 -12 20 -18 20
-7 0 -27 23 -45 50 -17 28 -37 50 -43 50 -5 0 -7 5 -4 10 3 6 1 10 -5 10 -6 0
-9 4 -6 8 3 5 -4 15 -15 22 -10 8 -19 20 -19 27 0 6 -6 16 -12 20 -7 4 -20 17
-28 27 -13 18 -13 19 0 12 9 -4 8 -1 -2 7 -10 8 -18 18 -18 22 0 4 -8 15 -17
24 -10 9 -19 23 -21 31 -2 8 -8 17 -13 18 -5 2 -9 12 -9 21 0 10 -9 26 -20 36
-11 10 -20 24 -20 32 0 7 -5 13 -11 13 -5 0 -7 5 -4 10 3 6 1 10 -4 10 -6 0
-10 3 -9 8 1 4 -3 17 -10 28 -6 12 -8 24 -5 28 3 3 1 6 -5 6 -7 0 -12 7 -12
15 0 8 -5 15 -11 15 -5 0 -7 5 -4 10 3 6 0 10 -7 10 -9 0 -9 3 2 10 13 8 12
10 -3 10 -12 0 -17 6 -15 18 1 9 -8 32 -21 50 -13 18 -21 35 -18 38 3 3 -1 17
-8 31 -8 15 -12 30 -9 35 3 4 0 8 -6 8 -6 0 -8 5 -5 10 3 6 1 10 -5 10 -7 0
-10 6 -7 13 2 6 -4 31 -14 55 -10 24 -18 46 -17 50 1 4 -3 17 -10 30 -7 12
-10 22 -7 22 3 0 1 8 -4 18 -7 13 -6 23 2 32 9 10 9 11 0 6 -8 -4 -13 -1 -14
8 -2 25 -4 30 -13 45 -7 11 -6 12 5 6 11 -7 12 -6 2 6 -7 9 -14 29 -16 45 -2
17 -7 35 -11 42 -4 7 -2 12 5 12 7 0 4 7 -7 15 -11 8 -14 14 -6 15 10 0 10 5
2 21 -7 11 -9 27 -6 35 3 8 2 14 -3 14 -5 0 -8 10 -7 23 1 12 -3 25 -9 29 -6
5 -5 8 3 8 7 0 10 5 6 11 -5 9 -8 35 -13 147 -1 7 -7 10 -13 7 -7 -4 -4 1 6 9
13 11 15 16 6 16 -7 0 -11 2 -8 6 3 3 2 21 -2 40 -5 23 -4 34 4 34 6 0 4 5 -4
10 -8 5 -10 10 -4 10 12 0 11 41 -1 59 -3 6 0 11 7 11 9 0 9 3 -2 10 -8 5 -10
10 -5 10 6 0 10 25 10 55 0 30 -4 55 -10 55 -5 0 -3 5 5 10 13 9 13 10 0 10
-12 1 -11 3 3 11 9 5 17 15 17 22 0 7 -4 6 -10 -3 -8 -11 -9 -9 -8 13 1 15 7
27 13 27 6 0 7 3 0 8 -12 9 -19 36 -7 28 5 -3 9 16 10 42 2 73 6 106 15 120 5
7 3 12 -5 12 -10 0 -9 3 2 10 8 5 11 12 7 16 -4 4 -2 13 4 20 7 8 7 14 -1 19
-8 5 -7 11 1 22 7 8 14 31 16 51 2 20 9 43 16 51 10 12 9 13 -3 6 -13 -8 -13
-7 -1 8 7 9 10 17 6 17 -4 0 0 12 10 26 9 15 12 23 6 20 -17 -11 -13 5 7 27 9
11 11 17 5 13 -7 -4 -13 -2 -13 3 0 6 5 11 11 11 6 0 9 7 5 15 -3 8 -2 15 3
15 7 0 11 15 12 53 0 10 6 20 14 23 7 3 12 14 10 25 -2 10 1 19 6 19 6 0 7 5
4 10 -3 6 -1 10 5 10 6 0 8 4 5 10 -3 5 2 21 11 35 9 14 13 25 9 25 -4 0 -2 7
5 15 7 8 9 15 4 15 -4 0 1 7 12 16 10 8 12 13 4 9 -12 -5 -12 -4 1 7 9 7 15
21 13 31 -1 10 4 21 12 24 8 3 12 9 9 13 -3 5 3 13 12 19 11 6 13 11 5 11 -7
0 -10 5 -7 10 4 6 12 7 18 4 7 -4 9 -3 4 1 -4 5 0 19 9 33 12 18 12 23 3 17
-8 -3 -6 0 5 9 10 8 15 20 10 27 -5 8 -3 10 6 4 10 -6 12 -4 7 8 -3 8 0 18 7
20 7 3 24 28 38 56 14 28 28 48 31 44 4 -3 7 -1 7 5 0 22 2 27 26 55 13 16 21
34 18 39 -4 6 -3 9 2 6 5 -3 16 1 24 10 8 9 13 17 11 17 -7 0 31 57 52 77 9
10 17 23 17 28 0 6 8 10 18 11 10 0 12 3 4 6 -8 3 -2 14 18 31 16 15 30 32 30
39 0 7 9 17 20 23 11 6 20 18 20 26 0 8 5 12 10 9 6 -3 10 -2 10 4 0 15 73 86
85 83 5 -2 7 0 3 4 -4 4 2 15 14 25 11 11 17 19 12 19 -5 0 2 6 16 13 14 8 24
20 22 28 -2 8 -1 11 3 7 9 -9 56 33 49 44 -3 5 -2 8 3 7 15 -4 43 13 37 22 -3
5 -1 9 5 9 5 0 25 16 45 35 20 19 36 32 36 29 0 -3 11 6 23 20 13 14 27 23 30
19 4 -3 7 -1 7 6 0 7 3 10 8 8 10 -5 42 30 34 38 -4 4 -2 5 3 3 15 -4 56 27
47 37 -4 5 -1 5 5 1 8 -4 24 4 39 19 14 14 29 24 32 21 3 -3 12 3 21 13 9 10
26 21 39 25 12 4 22 12 22 17 0 5 7 9 15 9 9 0 18 7 21 15 4 8 10 12 15 9 5
-3 9 0 9 6 0 6 5 8 10 5 6 -3 10 -1 10 5 0 6 5 8 10 5 6 -3 10 -1 10 4 0 6 7
11 15 11 8 0 15 4 15 9 0 10 39 27 53 23 4 -1 10 5 13 13 4 8 15 15 25 15 10
0 19 5 19 10 0 6 9 10 20 10 11 0 20 5 20 11 0 5 4 8 9 5 5 -3 12 1 15 10 3 8
10 12 16 9 5 -3 10 -1 10 5 0 6 4 9 9 5 5 -3 12 -1 16 4 3 6 13 7 22 4 10 -4
14 -2 10 4 -8 12 20 26 34 17 5 -3 9 3 9 13 0 15 2 16 10 3 7 -11 10 -11 10
-2 0 7 5 10 10 7 6 -3 10 -1 10 5 0 6 5 8 10 5 6 -3 10 -3 10 2 0 4 11 13 25
20 15 6 22 7 19 1 -4 -6 5 -2 19 7 15 9 31 14 36 11 5 -4 14 1 19 11 6 9 18
18 28 19 51 7 59 10 66 18 3 5 17 11 30 13 13 2 25 8 26 13 2 6 8 7 13 4 6 -3
17 0 26 8 14 11 16 11 9 -2 -7 -13 -6 -13 6 0 7 8 22 15 33 15 11 -1 23 3 26
8 3 4 17 9 30 10 13 0 30 8 37 17 8 8 11 9 7 3 -3 -7 -1 -13 4 -13 6 0 11 5
11 12 0 6 3 8 7 5 3 -4 16 1 27 10 20 17 20 17 6 -1 -14 -18 -14 -19 10 -6 14
8 30 13 37 12 6 -1 14 2 18 8 9 14 27 12 20 -2 -4 -7 -1 -6 7 2 7 8 22 15 33
15 11 0 26 6 33 15 8 9 11 10 6 1 -5 -10 -1 -11 17 -5 13 4 31 7 39 7 8 0 20
3 25 8 6 4 28 9 48 11 20 1 37 6 37 12 0 5 3 6 7 3 3 -4 13 -1 21 6 13 10 14
9 7 -2 -6 -11 -3 -13 16 -7 41 12 73 17 111 19 21 1 38 5 38 10 0 4 5 7 11 7
5 0 7 -6 3 -12 -4 -7 1 -5 12 4 16 14 23 15 32 6 8 -8 12 -8 12 -1 0 5 16 9
35 8 19 -1 35 3 35 9 0 6 5 4 10 -4 8 -12 10 -12 10 -1 0 10 3 11 13 2 10 -8
17 -7 26 2 14 14 43 16 53 2 5 -7 8 -7 8 0 0 6 22 10 50 10 28 -1 50 4 50 10
0 6 3 7 8 0 9 -12 42 -16 42 -5 0 4 7 11 16 14 14 5 15 4 4 -9 -11 -14 -10
-14 14 -6 19 8 26 7 26 -2 0 -8 4 -7 10 3 5 8 10 11 10 6 0 -5 8 -2 17 5 11
10 14 10 9 2 -9 -15 -5 -16 28 -4 17 7 26 6 30 -2 5 -9 7 -9 12 1 3 6 11 9 17
5 17 -11 31 -10 39 2 5 6 8 5 8 -3 0 -9 5 -10 19 -2 14 7 22 7 27 -1 4 -8 9
-7 15 2 6 9 9 10 9 2 0 -12 17 -12 38 0 7 5 12 3 12 -4 0 -8 4 -8 15 1 8 7 15
8 15 3 0 -5 9 -9 20 -9 11 0 20 5 20 11 0 5 5 3 10 -5 9 -13 11 -13 20 0 5 8
10 11 10 5 0 -5 11 -10 25 -10 14 0 25 4 25 9 0 5 8 2 17 -5 15 -12 16 -12 8
1 -8 13 -7 13 9 1 15 -13 19 -13 27 0 5 8 9 10 9 4 0 -5 11 -10 25 -10 14 0
25 4 25 9 0 5 7 3 15 -4 12 -10 15 -10 15 1 0 11 2 11 10 -1 9 -13 11 -13 20
0 5 8 10 11 10 5 0 -5 11 -10 25 -10 14 0 25 4 25 9 0 5 8 2 17 -5 15 -12 16
-12 8 1 -8 13 -7 13 9 1 15 -13 19 -13 27 0 5 8 9 10 9 4 0 -5 11 -10 25 -10
14 0 25 4 25 9 0 5 7 3 15 -4 12 -10 15 -10 15 1 0 11 2 11 10 -1 9 -13 11
-13 20 0 5 8 10 11 10 5 0 -5 11 -10 25 -10 14 0 25 4 25 9 0 5 8 2 17 -5 15
-12 16 -12 8 1 -8 13 -7 13 9 1 15 -13 19 -13 27 0 5 8 9 10 9 4 0 -5 11 -10
25 -10 14 0 25 4 25 9 0 5 7 3 15 -4 12 -10 15 -10 15 1 0 11 2 11 10 -1 9
-13 11 -13 20 0 5 8 10 11 10 5 0 -5 11 -10 25 -10 14 0 25 4 25 9 0 5 8 2 17
-5 15 -12 16 -12 8 1 -8 13 -7 13 9 1 15 -13 19 -13 27 0 5 8 9 10 9 4 0 -5
11 -10 25 -10 14 0 25 4 25 9 0 5 7 3 15 -4 12 -10 15 -10 15 1 0 11 2 11 10
-1 9 -13 11 -13 20 0 5 8 10 11 10 5 0 -5 11 -10 25 -10 14 0 25 4 25 9 0 5 8
2 17 -5 15 -12 16 -12 8 1 -8 13 -7 13 9 1 15 -13 19 -13 27 0 5 8 9 10 9 4 0
-5 11 -10 25 -10 14 0 25 4 25 9 0 5 7 3 15 -4 12 -10 15 -10 15 1 0 11 2 11
10 -1 9 -13 11 -13 20 0 5 8 10 11 10 5 0 -5 11 -10 25 -10 14 0 25 4 25 9 0
5 8 2 17 -5 15 -12 16 -12 8 1 -8 13 -7 13 9 1 15 -13 19 -13 27 0 5 8 9 10 9
4 0 -5 11 -10 25 -10 14 0 25 4 25 9 0 5 7 3 15 -4 12 -10 15 -10 15 1 0 11 2
11 10 -1 9 -13 11 -13 20 0 5 8 10 11 10 5 0 -5 11 -10 25 -10 14 0 25 4 25 9
0 5 8 2 17 -5 15 -12 16 -12 8 1 -8 13 -7 13 9 1 15 -13 19 -13 27 0 5 8 9 10
9 4 0 -5 11 -10 25 -10 14 0 25 4 25 9 0 5 7 3 15 -4 12 -10 15 -10 15 1 0 11
2 11 10 -1 9 -13 11 -13 20 0 5 8 10 11 10 5 0 -5 11 -10 25 -10 14 0 25 4 25
9 0 5 8 2 17 -5 15 -12 16 -12 8 1 -8 13 -7 13 9 1 15 -13 19 -13 27 0 5 8 9
10 9 4 0 -5 11 -10 25 -10 14 0 25 4 25 9 0 5 7 3 15 -4 12 -10 15 -10 15 1 0
11 2 11 10 -1 9 -13 11 -13 20 0 5 8 10 11 10 5 0 -5 11 -10 25 -10 14 0 25 4
25 9 0 5 8 2 17 -5 15 -12 16 -12 8 1 -8 13 -7 13 9 1 15 -13 19 -13 27 0 5 8
9 10 9 4 0 -5 11 -10 25 -10 14 0 25 4 25 9 0 5 7 3 15 -4 12 -10 15 -10 15 1
0 11 2 11 10 -1 9 -13 11 -13 20 0 5 8 10 10 10 4 0 -14 32 -13 42 1 5 6 8 5
8 -4 0 -11 3 -11 15 -1 8 7 15 8 15 3 0 -5 9 -9 20 -9 11 0 20 5 20 11 0 5 5
3 10 -5 9 -13 11 -13 20 0 5 8 10 11 10 5 0 -5 11 -10 25 -10 14 0 25 4 25 9
0 5 8 2 17 -5 15 -12 16 -12 8 1 -8 13 -7 13 9 1 15 -13 19 -13 27 0 5 8 9 10
9 4 0 -5 11 -10 25 -10 14 0 25 4 25 9 0 5 7 3 15 -4 12 -10 15 -10 15 1 0 11
2 11 10 -1 9 -13 11 -13 20 0 5 8 10 11 10 5 0 -5 11 -10 25 -10 14 0 25 4 25
9 0 5 8 2 17 -5 15 -12 16 -12 8 1 -8 13 -7 13 9 1 15 -13 19 -13 27 0 5 8 9
10 9 4 0 -5 11 -10 25 -10 14 0 25 4 25 9 0 5 7 3 15 -4 12 -10 15 -10 15 1 0
11 2 11 10 -1 9 -13 11 -13 20 0 5 8 10 11 10 5 0 -5 11 -10 25 -10 14 0 25 4
25 9 0 5 8 2 17 -5 15 -12 16 -12 8 1 -8 13 -7 13 9 1 15 -13 19 -13 27 0 5 8
9 10 9 4 0 -5 11 -10 25 -10 14 0 25 4 25 9 0 5 7 3 15 -4 12 -10 15 -10 15 1
0 11 2 11 10 -1 9 -13 11 -13 20 0 5 8 10 11 10 5 0 -5 11 -10 25 -10 14 0 25
4 25 9 0 5 8 2 17 -5 15 -12 16 -12 8 1 -8 13 -7 13 9 1 15 -13 19 -13 27 0 5
8 9 10 9 4 0 -5 11 -10 25 -10 14 0 25 4 25 9 0 5 7 3 15 -4 12 -10 15 -10 15
1 0 11 2 11 10 -1 9 -13 11 -13 20 0 5 8 10 11 10 5 0 -5 11 -10 25 -10 14 0
25 4 25 9 0 5 8 2 17 -5 15 -12 16 -12 8 1 -8 13 -7 13 9 1 15 -13 19 -13 27
0 5 8 9 10 9 4 0 -5 11 -10 25 -10 14 0 25 4 25 9 0 5 7 3 15 -4 12 -10 15
-10 15 1 0 11 2 11 10 -1 9 -13 11 -13 20 0 5 8 10 11 10 5 0 -5 11 -10 25
-10 14 0 25 4 25 9 0 5 8 2 17 -5 15 -12 16 -12 8 1 -8 13 -7 13 9 1 15 -13
19 -13 27 0 5 8 9 10 9 4 0 -5 11 -10 25 -10 14 0 25 4 25 9 0 5 7 3 15 -4 12
-10 15 -10 15 1 0 11 2 11 10 -1 9 -13 11 -13 20 0 5 8 10 11 10 5 0 -5 11
-10 25 -10 14 0 25 4 25 9 0 5 8 2 17 -5 15 -12 16 -12 8 1 -8 13 -7 13 9 1
15 -13 19 -13 27 0 5 8 9 10 9 4 0 -5 11 -10 25 -10 14 0 25 4 25 9 0 5 7 3
15 -4 12 -10 15 -10 15 1 0 11 2 11 10 -1 9 -13 11 -13 20 0 5 8 10 11 10 5 0
-5 11 -10 25 -10 14 0 25 4 25 9 0 5 8 2 17 -5 15 -12 16 -12 8 1 -8 13 -7 13
9 1 15 -13 19 -13 27 0 5 8 9 10 9 4 0 -5 11 -10 25 -10 14 0 25 4 25 9 0 5 7
3 15 -4 12 -10 15 -10 15 1 0 11 2 11 10 -1 9 -13 11 -13 20 0 5 8 10 11 10 5
0 -5 11 -10 25 -10 14 0 25 4 25 9 0 5 8 2 17 -5 15 -12 16 -12 8 1 -8 13 -7
13 9 1 15 -13 19 -13 27 0 5 8 9 10 9 4 0 -5 11 -10 25 -10 14 0 25 4 25 9 0
5 7 3 15 -4 12 -10 15 -10 15 1 0 11 2 11 10 -1 9 -13 11 -13 20 0 5 8 10 11
10 5 0 -5 11 -10 25 -10 14 0 25 4 25 9 0 5 8 2 17 -5 15 -12 16 -12 8 1 -8
13 -7 13 9 1 15 -13 19 -13 27 0 5 8 9 10 9 4 0 -5 11 -10 25 -10 14 0 25 4
25 9 0 5 7 3 15 -4 12 -10 15 -10 15 1 0 11 2 11 10 -1 9 -13 11 -13 20 0 8
12 10 12 10 1 0 -10 3 -11 14 -2 9 8 16 8 20 2 4 -6 18 -6 35 -1 19 5 33 4 40
-3 8 -8 11 -7 11 4 0 12 2 12 10 -1 9 -13 11 -13 20 0 5 8 10 11 10 5 0 -5 11
-10 25 -10 14 0 25 4 25 9 0 5 8 2 17 -5 15 -12 16 -12 8 1 -8 13 -7 13 9 1
15 -13 19 -13 27 0 5 8 9 10 9 4 0 -5 11 -10 25 -10 14 0 25 4 25 9 0 5 7 3
15 -4 12 -10 15 -10 15 1 0 11 2 11 10 -1 9 -13 11 -13 20 0 5 8 10 11 10 5 0
-5 11 -10 25 -10 14 0 25 4 25 9 0 5 8 2 17 -5 15 -12 16 -12 8 1 -8 13 -7 13
9 1 15 -13 19 -13 27 0 5 8 9 10 9 4 0 -5 11 -10 25 -10 14 0 25 4 25 9 0 5 7
3 15 -4 12 -10 15 -10 15 1 0 11 2 11 10 -1 9 -13 11 -13 20 0 5 8 10 11 10 5
0 -5 11 -10 25 -10 14 0 25 4 25 9 0 5 8 2 17 -5 15 -12 16 -12 8 1 -8 13 -7
13 9 1 15 -13 19 -13 27 0 5 8 9 10 9 4 0 -5 11 -10 25 -10 14 0 25 4 25 9 0
5 7 3 15 -4 12 -10 15 -10 15 1 0 11 2 11 10 -1 9 -13 11 -13 20 0 5 8 10 11
10 5 0 -5 11 -10 25 -10 14 0 25 4 25 9 0 5 8 2 17 -5 15 -12 16 -12 8 1 -8
13 -7 13 9 1 15 -13 19 -13 27 0 5 8 9 10 9 4 0 -5 11 -10 25 -10 14 0 25 4
25 9 0 5 7 3 15 -4 12 -10 15 -10 15 1 0 11 2 11 10 -1 9 -13 11 -13 20 0 5 8
10 11 10 5 0 -5 11 -10 25 -10 14 0 25 4 25 9 0 5 8 2 17 -5 15 -12 16 -12 8
1 -8 13 -7 13 9 1 15 -13 19 -13 27 0 7 12 9 12 9 -1 1 -12 3 -11 11 3 6 9 15
14 21 11 6 -4 8 -3 5 3 -3 5 5 21 19 36 14 15 22 27 18 27 -3 0 4 9 17 20 13
10 21 19 17 20 -7 0 18 32 67 83 16 18 28 33 27 35 -7 8 0 22 8 17 6 -3 10 -1
10 5 0 6 6 17 13 24 6 8 19 24 27 36 40 59 57 79 63 73 4 -3 7 0 7 8 0 13 16
35 75 102 9 10 20 29 25 42 5 14 17 25 25 25 9 0 14 4 11 8 -3 5 6 20 20 35
14 15 22 27 19 27 -3 0 6 11 21 25 15 14 24 25 20 25 -6 0 -1 6 51 64 12 13
19 27 16 30 -4 3 -1 6 5 6 7 0 12 7 12 16 0 8 4 13 9 9 5 -3 12 4 16 15 3 11
11 20 16 20 6 0 8 3 6 8 -6 10 30 42 39 34 4 -4 4 -2 0 5 -6 11 12 38 57 85 9
10 17 21 17 26 0 4 9 15 20 25 12 10 18 23 14 29 -4 7 -3 8 4 4 7 -4 12 -3 12
2 0 5 11 22 25 38 14 16 25 33 25 37 0 5 4 5 10 2 6 -4 7 1 3 11 -4 12 -3 15
5 10 11 -6 17 5 13 27 0 4 6 7 15 7 8 0 13 3 11 8 -7 10 19 32 28 24 4 -4 5 2
3 13 -1 11 2 19 8 18 5 -1 16 7 23 19 10 16 10 19 -1 12 -7 -4 4 10 25 31 20
22 37 43 37 47 0 4 11 20 25 35 36 41 41 47 41 53 -1 3 11 19 27 35 15 16 27
33 27 38 0 4 5 5 12 1 6 -4 8 -3 5 3 -4 6 0 16 8 23 8 7 12 16 9 21 -3 5 0 8
8 7 7 -2 12 3 10 10 -1 6 5 12 14 12 8 0 13 4 10 8 -3 5 5 19 18 33 12 13 25
32 29 42 4 10 11 15 17 12 5 -3 10 1 10 10 0 9 11 27 25 41 14 14 25 29 25 33
0 4 14 22 30 40 17 17 28 31 25 31 -3 0 0 6 7 14 7 8 17 11 22 8 5 -3 7 2 3
11 -4 10 1 18 13 22 12 4 17 12 13 22 -4 11 -2 14 5 9 7 -4 12 -1 12 7 0 8 7
18 16 21 9 4 14 9 12 12 -3 3 7 19 23 37 16 17 29 37 29 45 0 7 4 10 10 7 5
-3 12 6 16 20 3 14 9 24 11 21 9 -9 35 23 28 34 -3 5 1 10 9 10 9 0 16 7 16
15 0 8 3 15 8 15 4 0 18 18 32 39 13 22 28 37 32 35 5 -3 8 -2 7 3 -3 20 2 34
11 28 6 -3 10 -1 10 5 0 6 5 16 10 23 47 56 60 74 60 85 0 7 3 11 8 9 4 -3 13
1 20 9 7 8 9 14 5 14 -4 0 1 7 11 15 11 8 17 15 13 15 -5 0 -2 6 5 14 7 8 17
11 22 8 5 -3 6 0 2 7 -4 6 0 14 9 17 13 6 14 8 3 15 -10 7 -10 9 2 9 14 0 41
32 39 46 0 3 11 15 24 27 13 12 27 30 30 40 4 9 11 17 17 17 5 0 10 7 10 16 0
9 5 12 12 8 8 -5 9 -2 5 10 -4 10 -3 15 3 11 5 -3 14 4 20 15 6 11 8 20 5 20
-3 0 13 19 35 41 22 23 40 45 40 48 0 4 15 22 33 41 17 18 25 30 17 25 -8 -4
-1 6 17 23 17 16 29 33 26 36 -4 3 1 6 11 6 9 0 14 5 11 10 -8 13 20 42 30 32
5 -4 5 -2 2 5 -6 10 37 73 56 81 4 2 7 8 7 13 0 15 -9000 11 -9018 -4 -12 -9
-16 -9 -19 1 -3 6 -9 12 -14 12 -6 0 -8 -4 -5 -8 2 -4 -4 -8 -14 -8 -10 0 -17
3 -15 6 6 9 -44 4 -52 -5 -5 -4 -2 -5 6 0 9 5 12 4 7 -3 -9 -15 -12 -15 -30 4
-11 10 -16 11 -16 3z"/>
<path d="M26895 26819 c-4 -6 -13 -8 -20 -5 -7 2 -18 -1 -24 -7 -8 -8 -11 -8
-11 2 0 7 -5 9 -10 6 -19 -12 -120 -13 -113 -1 4 6 0 5 -9 -1 -8 -7 -18 -10
-21 -6 -4 3 -7 1 -7 -6 0 -9 -5 -9 -20 -1 -14 8 -20 8 -20 0 0 -6 -4 -8 -10
-5 -5 3 -10 2 -10 -4 0 -6 -8 -7 -17 -4 -9 4 -29 7 -43 7 -14 0 -34 -3 -43 -7
-10 -4 -17 -2 -17 6 0 8 -3 8 -9 -2 -5 -7 -14 -10 -20 -7 -6 4 -11 1 -11 -6 0
-9 -3 -9 -10 2 -5 8 -10 10 -10 4 0 -7 -22 -11 -59 -10 -33 1 -57 -2 -55 -5 2
-4 -9 -7 -24 -8 -61 -2 -108 -8 -120 -15 -7 -4 -12 -2 -12 5 0 9 -3 9 -14 0
-8 -6 -18 -11 -22 -10 -5 1 -11 0 -14 -1 -3 -2 -25 -4 -50 -5 -25 -2 -45 -4
-45 -5 0 -4 -43 -11 -90 -14 -27 -3 -52 -5 -55 -6 -3 -1 -8 -2 -12 -1 -5 0 -8
-2 -8 -7 0 -4 -19 -7 -42 -6 -24 0 -49 -4 -55 -9 -7 -5 -22 -7 -33 -4 -11 3
-20 0 -20 -6 0 -6 -3 -7 -7 -4 -3 4 -13 1 -21 -6 -11 -8 -13 -8 -9 0 5 7 0 9
-13 6 -11 -3 -18 -9 -15 -13 2 -4 -12 -6 -33 -4 -20 1 -41 -1 -47 -4 -12 -8
-34 -13 -55 -13 -8 -1 -22 -3 -30 -7 -16 -6 -25 -8 -75 -14 -17 -2 -36 -8 -43
-12 -7 -4 -16 -5 -21 -1 -5 3 -12 1 -16 -4 -3 -6 -12 -8 -20 -4 -8 3 -15 0
-15 -7 0 -6 -6 -10 -12 -7 -7 2 -21 0 -30 -5 -13 -6 -18 -5 -18 4 0 8 -5 6
-11 -5 -7 -11 -18 -16 -35 -13 -13 3 -24 1 -24 -4 0 -5 -7 -6 -17 -3 -10 4
-14 2 -10 -4 4 -7 0 -10 -10 -9 -10 2 -31 -1 -48 -6 -28 -8 -47 -13 -85 -23
-8 -2 -17 -4 -20 -6 -3 -1 -9 -3 -15 -4 -49 -9 -105 -29 -105 -37 0 -6 -7 -5
-15 2 -12 10 -15 10 -15 0 0 -8 -3 -11 -6 -7 -4 3 -18 0 -33 -7 -14 -7 -33
-12 -41 -11 -8 0 -21 -6 -29 -13 -10 -9 -16 -10 -21 -3 -4 7 -13 4 -27 -8 -11
-11 -29 -18 -39 -17 -11 2 -38 -5 -61 -15 -22 -10 -44 -15 -47 -12 -3 4 -6 0
-6 -7 0 -7 -3 -10 -7 -7 -3 4 -13 1 -21 -6 -13 -10 -14 -9 -8 1 4 7 -7 4 -25
-7 -18 -11 -37 -17 -42 -14 -5 3 -12 0 -16 -6 -4 -6 -22 -13 -39 -14 -19 -1
-30 -7 -28 -13 2 -6 -1 -11 -7 -11 -36 1 -58 -4 -53 -12 4 -5 -3 -7 -14 -4
-12 3 -22 -1 -26 -10 -3 -9 -12 -13 -20 -10 -8 3 -21 0 -29 -7 -8 -7 -15 -10
-15 -6 0 4 -11 -1 -25 -10 -13 -8 -28 -13 -34 -10 -5 3 -11 2 -13 -3 -1 -5
-10 -11 -18 -13 -8 -2 -21 -10 -28 -18 -12 -13 -13 -13 -6 0 7 13 5 13 -9 1
-9 -7 -17 -10 -17 -6 0 5 -8 1 -17 -7 -10 -9 -26 -14 -35 -13 -9 2 -19 -4 -22
-12 -4 -8 -13 -13 -21 -9 -8 3 -15 2 -15 -2 0 -9 -121 -58 -133 -54 -5 1 -6
-2 -2 -8 3 -5 1 -11 -4 -11 -35 -4 -71 -20 -71 -30 0 -6 -4 -8 -9 -4 -5 3 -12
1 -16 -5 -4 -6 -11 -8 -16 -5 -5 4 -9 1 -9 -4 0 -6 -7 -11 -15 -11 -8 0 -29
-9 -47 -19 -17 -11 -36 -17 -41 -14 -6 3 -7 1 -3 -5 6 -11 -6 -16 -26 -13 -5
0 -8 -4 -8 -9 0 -6 -9 -10 -20 -10 -11 0 -20 -4 -20 -10 0 -5 -9 -10 -20 -10
-11 0 -20 -3 -20 -7 0 -5 -25 -19 -55 -33 -30 -14 -55 -29 -55 -33 0 -5 -4 -5
-10 -2 -5 3 -10 1 -10 -5 0 -6 -4 -8 -10 -5 -5 3 -10 1 -10 -5 0 -6 -4 -9 -9
-6 -5 3 -11 -1 -15 -9 -3 -9 -12 -12 -22 -8 -11 4 -15 2 -11 -4 4 -6 -4 -14
-18 -17 -14 -4 -25 -11 -25 -16 0 -6 -8 -10 -19 -10 -10 0 -24 -7 -31 -15 -7
-8 -19 -15 -27 -15 -7 0 -16 -7 -19 -15 -4 -8 -10 -12 -15 -9 -5 3 -12 -2 -15
-10 -3 -9 -10 -14 -14 -11 -5 3 -16 -2 -24 -11 -9 -8 -16 -12 -16 -8 0 4 -9
-3 -20 -16 -11 -13 -20 -20 -20 -16 0 3 -10 0 -23 -9 -13 -8 -27 -13 -30 -10
-4 3 -5 2 -2 -2 7 -9 -47 -43 -58 -36 -6 3 -7 1 -4 -4 6 -9 -9 -21 -28 -23 -2
0 -17 -12 -31 -25 -15 -14 -31 -25 -35 -25 -8 0 -36 -20 -64 -47 -8 -7 -18
-13 -23 -13 -6 0 -24 -13 -41 -29 -16 -15 -33 -26 -36 -23 -3 3 -5 0 -5 -6 0
-7 -5 -12 -11 -12 -6 0 -16 -6 -23 -12 -7 -7 -25 -22 -40 -33 -15 -11 -40 -30
-54 -42 -15 -13 -31 -23 -35 -23 -5 0 -5 -4 -2 -10 3 -5 -3 -10 -13 -10 -11 0
-23 -7 -26 -16 -3 -8 -11 -12 -17 -8 -7 4 -9 3 -6 -3 5 -8 -33 -51 -40 -45 -7
5 -25 1 -20 -5 4 -3 -11 -19 -33 -35 -22 -17 -38 -34 -35 -39 4 -5 0 -6 -8 -3
-8 3 -18 0 -23 -7 -5 -8 -3 -10 6 -4 9 5 11 4 6 -3 -4 -7 -13 -12 -19 -12 -7
0 -19 -9 -27 -19 -7 -11 -17 -18 -22 -15 -4 3 -8 -3 -8 -12 0 -10 -2 -15 -6
-12 -3 3 -44 -32 -92 -78 -48 -47 -90 -88 -94 -92 -5 -4 -24 -24 -43 -45 -19
-20 -37 -37 -40 -37 -3 0 -4 -2 -2 -4 1 -2 -10 -14 -25 -26 -16 -12 -28 -28
-28 -36 0 -8 -3 -13 -7 -11 -10 6 -34 -19 -26 -27 4 -3 -1 -6 -9 -6 -9 0 -22
-10 -30 -22 -9 -13 -29 -38 -47 -57 -17 -18 -31 -37 -31 -43 0 -5 -4 -6 -10
-3 -5 3 -10 2 -10 -2 0 -5 -16 -26 -35 -47 -19 -21 -35 -45 -35 -53 0 -8 -4
-11 -10 -8 -5 3 -10 2 -10 -3 0 -5 -14 -23 -30 -41 -17 -17 -27 -31 -23 -31 4
0 -2 -7 -13 -15 -10 -8 -15 -15 -11 -15 4 0 -3 -10 -16 -22 -12 -13 -34 -39
-47 -58 -13 -19 -30 -39 -37 -43 -7 -4 -13 -15 -13 -22 0 -8 -5 -15 -12 -15
-6 0 -8 -3 -5 -6 4 -4 -3 -15 -15 -25 -11 -11 -18 -19 -14 -19 4 0 -2 -10 -14
-22 -11 -12 -20 -28 -20 -35 0 -8 -4 -12 -9 -9 -8 6 -25 -30 -22 -47 1 -5 -3
-6 -9 -2 -5 3 -16 -7 -22 -22 -7 -15 -21 -37 -30 -47 -10 -11 -18 -26 -18 -33
0 -8 -7 -16 -15 -19 -8 -4 -13 -10 -10 -14 3 -5 -3 -13 -12 -19 -10 -6 -14
-11 -10 -11 4 0 -6 -20 -22 -44 -17 -24 -27 -46 -24 -50 4 -3 -1 -6 -10 -6
-10 0 -14 -5 -11 -15 4 -8 2 -15 -3 -15 -5 0 -17 -18 -27 -40 -10 -22 -22 -40
-27 -40 -5 0 -9 -9 -9 -20 0 -11 -4 -20 -10 -20 -5 0 -10 -6 -10 -14 0 -8 -7
-22 -16 -30 -8 -9 -13 -20 -9 -26 3 -5 -3 -18 -14 -29 -25 -25 -52 -87 -43
-97 4 -4 1 -4 -5 0 -8 4 -13 1 -13 -8 0 -9 -5 -16 -11 -16 -5 0 -8 -4 -4 -9 3
-5 1 -12 -5 -16 -6 -4 -8 -11 -5 -16 4 -5 1 -9 -5 -9 -6 0 -8 -4 -5 -10 3 -5
1 -10 -5 -10 -6 0 -9 -4 -6 -9 4 -5 2 -11 -3 -13 -5 -1 -11 -12 -13 -23 -1
-11 -9 -26 -16 -33 -7 -8 -10 -18 -7 -23 4 -5 1 -9 -4 -9 -6 0 -11 -9 -11 -20
0 -11 -4 -20 -10 -20 -5 0 -10 -9 -10 -20 0 -11 -4 -20 -10 -20 -5 0 -10 -13
-10 -29 0 -17 -4 -33 -10 -36 -5 -3 -15 -15 -21 -27 -7 -12 -7 -18 -1 -14 6 3
5 -4 -1 -18 -7 -13 -16 -22 -20 -19 -5 3 -6 -4 -2 -16 4 -13 2 -21 -5 -21 -6
0 -8 -4 -5 -10 3 -5 2 -10 -4 -10 -5 0 -8 -8 -7 -17 2 -10 -1 -21 -6 -24 -5
-3 -11 -12 -12 -20 -8 -41 -19 -69 -27 -69 -5 0 -9 -5 -9 -11 0 -5 4 -8 9 -5
5 4 0 -13 -12 -36 -11 -24 -20 -51 -18 -60 1 -10 -3 -18 -10 -18 -7 0 -9 -3
-6 -7 4 -3 1 -13 -6 -21 -10 -13 -9 -14 3 -7 11 6 10 3 -2 -12 -10 -11 -18
-24 -18 -29 0 -5 5 -2 10 6 5 8 10 11 10 5 -1 -5 -7 -19 -15 -29 -8 -10 -12
-23 -9 -27 3 -5 1 -9 -5 -9 -5 0 -8 -9 -6 -20 2 -11 0 -22 -5 -25 -5 -3 -7
-12 -4 -19 3 -8 0 -17 -7 -22 -8 -5 -10 -3 -4 6 5 9 4 11 -4 6 -8 -5 -9 -12
-3 -19 11 -13 8 -47 -5 -56 -7 -5 -11 -23 -16 -73 -1 -10 -4 -18 -8 -18 -4 0
-5 -13 -4 -30 1 -16 -1 -27 -6 -25 -4 3 -10 1 -14 -5 -3 -5 -1 -10 5 -10 6 0
8 -5 3 -12 -4 -7 -8 -24 -9 -36 0 -13 -7 -27 -14 -32 -10 -6 -9 -9 1 -13 8 -3
9 -6 3 -6 -7 -1 -10 -14 -8 -31 2 -16 -1 -30 -6 -30 -5 0 -8 -18 -7 -40 2 -22
-1 -40 -6 -40 -5 0 -6 -7 -3 -16 4 -9 2 -13 -5 -8 -8 4 -9 -1 -4 -15 3 -11 2
-21 -3 -21 -5 0 -7 -13 -4 -29 2 -16 -1 -32 -8 -36 -8 -5 -8 -10 1 -21 6 -8 7
-14 2 -14 -5 0 -11 -21 -12 -47 0 -25 -7 -53 -14 -62 -10 -12 -9 -14 7 -8 17
7 17 6 5 -9 -9 -10 -15 -45 -16 -87 -1 -45 -7 -73 -15 -78 -10 -7 -10 -9 1 -9
11 0 11 -3 0 -17 -12 -15 -12 -16 1 -8 12 6 13 5 3 -6 -7 -7 -13 -17 -13 -22
0 -4 6 -5 13 -1 9 6 9 4 1 -7 -6 -8 -11 -47 -10 -87 1 -39 -3 -72 -8 -72 -5 0
-3 -7 4 -15 9 -11 9 -15 1 -15 -7 0 -10 -4 -6 -9 3 -5 1 -12 -5 -16 -5 -3 -10
-12 -10 -18 0 -8 4 -7 9 2 6 9 9 -1 8 -30 -1 -24 -6 -50 -10 -57 -5 -7 -4 -18
2 -26 6 -7 8 -16 4 -19 -9 -10 -10 -88 0 -94 4 -2 2 -12 -5 -21 -11 -12 -11
-16 0 -20 10 -3 10 -7 1 -19 -10 -11 -10 -16 0 -23 9 -5 10 -10 2 -14 -8 -5
-8 -13 -1 -27 6 -11 7 -19 1 -19 -5 0 -7 -9 -4 -20 3 -11 10 -17 17 -14 6 3 2
-2 -8 -10 -13 -10 -15 -16 -7 -16 10 0 11 -3 2 -14 -9 -11 -9 -16 0 -22 8 -5
9 -3 4 6 -5 9 -4 11 4 6 8 -5 9 -12 2 -20 -8 -10 -9 -34 -1 -56 1 -3 2 -39 2
-80 0 -41 5 -80 10 -87 6 -7 5 -14 -2 -18 -8 -5 -8 -11 1 -21 9 -11 8 -14 -2
-14 -10 0 -11 -2 -2 -8 7 -4 11 -16 9 -27 -2 -11 2 -23 8 -27 8 -6 6 -11 -4
-18 -8 -5 -10 -10 -5 -10 7 0 9 -15 7 -36 -3 -27 -1 -35 8 -29 9 6 9 3 2 -12
-7 -12 -7 -25 -1 -34 5 -7 9 -35 9 -61 0 -32 4 -48 13 -48 7 0 8 -3 2 -8 -14
-10 -18 -35 -4 -27 7 5 10 -4 8 -27 -2 -18 -1 -38 3 -43 3 -6 4 -18 3 -27 -2
-10 0 -18 5 -18 4 0 7 -18 6 -40 0 -22 3 -41 9 -43 5 -2 10 -21 11 -43 2 -21
6 -50 9 -64 7 -28 13 -58 14 -78 1 -7 5 -11 9 -8 4 2 7 -10 7 -27 -1 -18 5
-41 14 -51 12 -14 12 -17 2 -11 -11 6 -13 4 -6 -11 5 -10 9 -29 9 -41 1 -13 5
-23 9 -23 5 0 5 -4 2 -10 -3 -5 -2 -10 4 -10 5 0 8 -12 6 -26 -1 -14 3 -28 10
-30 14 -6 16 -34 3 -34 -5 0 -2 -7 7 -16 9 -10 14 -25 12 -35 -3 -11 -1 -19 4
-19 5 0 9 -9 9 -20 0 -11 5 -20 11 -20 8 0 8 -5 -1 -15 -9 -10 -9 -15 -1 -15
6 0 11 -7 11 -16 0 -8 5 -12 11 -8 8 4 8 0 0 -15 -8 -14 -8 -21 -1 -21 5 0 10
-10 10 -23 0 -13 4 -27 10 -33 5 -5 11 -19 13 -31 1 -11 7 -27 13 -35 5 -7 9
-22 9 -33 0 -11 4 -23 10 -27 5 -4 10 -18 10 -30 1 -13 5 -22 11 -21 5 1 11
-10 12 -23 1 -14 6 -33 12 -43 5 -10 6 -21 3 -25 -3 -3 -1 -6 5 -6 7 0 12 -9
12 -20 0 -11 4 -20 8 -20 4 0 8 -10 9 -22 1 -11 8 -25 15 -29 7 -5 9 -9 4 -9
-5 0 -3 -6 3 -13 6 -8 8 -17 4 -20 -3 -4 -1 -7 6 -7 7 0 10 -4 6 -9 -3 -5 2
-17 11 -25 8 -9 12 -16 9 -16 -4 0 0 -11 9 -25 9 -14 14 -30 11 -35 -3 -5 3
-13 12 -19 10 -6 14 -11 10 -11 -4 0 -2 -10 5 -22 7 -13 11 -26 10 -30 -1 -5
3 -8 9 -8 5 0 8 -4 5 -9 -3 -5 1 -14 8 -21 8 -6 18 -25 21 -41 4 -16 11 -29
16 -29 6 0 8 -4 5 -9 -3 -5 1 -14 9 -21 8 -7 12 -16 9 -21 -3 -5 -1 -9 4 -9 9
0 25 -37 23 -52 -1 -5 3 -8 9 -8 5 0 10 -9 10 -19 0 -10 7 -22 16 -25 8 -3 12
-10 9 -16 -3 -5 -1 -10 5 -10 6 0 9 -4 6 -8 -3 -5 4 -19 15 -30 11 -12 17 -22
14 -22 -3 0 1 -10 10 -23 8 -13 12 -27 8 -32 -5 -4 -2 -5 5 -1 6 4 12 4 12 -1
0 -4 10 -24 22 -43 12 -19 23 -41 24 -48 1 -7 11 -21 21 -30 10 -9 19 -24 21
-32 2 -8 10 -20 17 -26 8 -6 12 -13 10 -16 -3 -3 1 -11 10 -18 8 -7 15 -17 15
-22 0 -6 14 -27 30 -48 17 -21 30 -43 30 -49 0 -6 5 -11 10 -11 6 0 10 -5 10
-11 0 -6 6 -17 13 -24 29 -33 37 -45 32 -45 -4 0 1 -7 9 -16 9 -8 13 -20 10
-26 -4 -7 -2 -8 4 -4 7 4 17 -3 24 -18 6 -14 15 -26 20 -26 4 0 8 -7 8 -15 0
-8 5 -15 10 -15 6 0 10 -7 10 -15 0 -8 5 -15 10 -15 6 0 10 -5 10 -10 0 -6 12
-22 26 -35 15 -14 23 -25 19 -25 -4 0 2 -8 13 -19 12 -10 22 -23 22 -30 0 -6
4 -11 8 -11 5 0 15 -11 22 -25 7 -13 17 -22 22 -19 4 3 8 -4 8 -16 0 -12 5
-18 10 -15 6 3 10 2 10 -4 0 -6 11 -22 25 -36 14 -14 23 -25 19 -25 -4 0 3 -8
14 -19 12 -10 22 -24 22 -30 0 -7 5 -9 10 -6 6 3 10 2 10 -2 0 -18 151 -179
164 -175 6 2 8 1 4 -3 -3 -4 1 -16 10 -27 45 -53 52 -60 52 -53 0 5 12 -7 26
-26 14 -19 30 -33 35 -31 5 1 9 -2 9 -8 0 -10 77 -87 129 -130 17 -14 31 -31
31 -38 0 -7 4 -11 9 -7 5 3 17 -5 25 -17 9 -12 16 -20 16 -16 0 3 21 -14 46
-38 25 -24 50 -44 55 -44 6 0 7 -4 4 -10 -3 -5 -1 -10 5 -10 6 0 21 -10 34
-22 37 -36 76 -68 76 -63 0 3 6 0 14 -7 8 -7 11 -17 8 -22 -3 -5 0 -6 5 -3 13
8 36 -17 26 -27 -4 -4 1 -4 11 0 14 5 17 4 12 -4 -4 -7 -2 -12 3 -12 22 0 27
-3 54 -31 15 -16 30 -29 34 -29 3 0 13 -7 22 -15 34 -32 79 -65 89 -65 6 0 18
-10 26 -22 9 -12 16 -18 16 -13 0 6 5 2 11 -8 6 -9 14 -15 20 -12 5 4 9 -1 9
-9 0 -9 6 -13 14 -10 7 3 16 -2 19 -10 4 -9 12 -16 19 -16 8 0 20 -9 28 -19 7
-11 17 -18 22 -15 4 3 8 0 8 -6 0 -6 4 -9 9 -6 5 3 11 0 14 -8 3 -8 22 -22 41
-31 20 -10 36 -21 36 -26 0 -5 7 -9 16 -9 20 0 45 -25 36 -35 -4 -5 -2 -6 3
-3 15 8 57 -10 50 -22 -4 -6 -3 -10 2 -9 17 3 32 -1 45 -13 7 -7 27 -20 43
-28 17 -8 43 -25 58 -37 16 -13 33 -21 38 -17 5 3 9 1 9 -5 0 -5 18 -17 40
-27 22 -10 40 -22 40 -27 0 -4 5 -5 10 -2 6 3 10 2 10 -2 0 -5 16 -15 35 -22
21 -7 33 -17 29 -23 -4 -6 -2 -8 4 -4 6 3 16 1 24 -6 7 -7 20 -14 28 -16 8 -2
23 -10 32 -19 9 -8 22 -12 27 -8 6 3 11 2 11 -2 0 -5 9 -14 21 -21 17 -11 20
-11 14 0 -3 7 0 5 9 -6 8 -10 19 -15 25 -11 6 3 11 -1 11 -10 0 -9 5 -13 11
-10 6 4 17 -1 24 -11 8 -11 15 -15 15 -10 0 5 8 2 17 -5 14 -12 16 -12 9 1 -4
9 -2 8 7 -2 8 -10 17 -15 20 -11 4 3 7 1 7 -5 0 -7 7 -12 16 -12 9 0 30 -10
47 -22 18 -13 28 -16 23 -7 -5 9 -3 9 6 -2 7 -9 19 -14 27 -11 8 3 11 0 7 -7
-4 -7 0 -11 12 -11 27 0 73 -25 64 -35 -4 -5 -2 -5 4 -2 6 3 22 0 37 -8 15 -8
27 -12 27 -9 0 3 10 -2 22 -10 12 -9 31 -16 41 -16 11 0 15 -4 11 -12 -5 -7
-2 -9 9 -5 8 3 21 0 27 -8 6 -8 17 -12 24 -9 8 3 21 -2 29 -11 9 -8 20 -14 24
-13 4 1 18 -3 29 -10 12 -6 24 -8 28 -5 3 3 6 0 6 -7 0 -7 3 -10 7 -7 3 4 17
0 30 -8 13 -9 28 -13 32 -10 5 3 11 1 13 -4 1 -5 12 -11 23 -13 11 -1 23 -7
26 -11 3 -4 16 -9 27 -10 12 -1 22 -5 22 -10 0 -4 5 -5 10 -2 6 3 10 2 10 -4
0 -5 8 -8 18 -7 9 2 20 -1 23 -6 3 -5 12 -11 20 -12 8 -2 25 -8 39 -13 14 -6
29 -8 33 -6 5 3 15 -3 22 -13 11 -15 14 -16 15 -4 0 12 2 12 9 2 4 -8 11 -13
15 -13 19 3 27 0 22 -8 -3 -4 6 -6 21 -3 18 3 24 1 19 -6 -5 -8 -1 -10 10 -5
11 4 15 2 11 -4 -4 -6 3 -8 17 -6 13 3 27 0 30 -6 4 -6 18 -11 32 -11 13 0 24
-4 24 -8 0 -4 12 -9 27 -10 15 -1 29 -6 32 -10 3 -4 13 -7 21 -7 8 1 24 -6 34
-14 11 -9 16 -10 12 -3 -4 6 -2 12 3 12 6 0 11 -4 11 -8 0 -5 7 -9 15 -10 8
-1 22 -3 30 -4 8 -1 15 -5 15 -9 0 -4 9 -6 20 -4 11 2 20 -1 20 -6 0 -6 9 -8
19 -4 11 3 22 1 26 -5 3 -6 10 -8 15 -5 5 3 11 1 15 -5 4 -6 11 -8 16 -5 5 4
9 2 9 -2 0 -5 16 -9 36 -10 20 -1 39 -5 43 -11 3 -5 14 -8 24 -6 9 1 17 -2 17
-6 0 -5 9 -7 20 -5 11 2 20 1 20 -3 0 -4 16 -8 36 -10 20 -1 41 -5 47 -9 12
-7 16 -8 77 -18 19 -3 42 -8 50 -12 8 -3 24 -7 35 -8 11 0 26 -4 33 -8 7 -5
12 -3 12 5 0 10 3 9 10 -2 5 -9 25 -14 54 -14 26 0 42 -4 39 -10 -4 -5 1 -7
10 -3 9 3 18 -1 21 -10 4 -10 11 -12 19 -6 15 11 36 10 62 -3 11 -5 35 -9 53
-9 17 0 32 -3 32 -8 0 -5 6 -4 14 2 9 8 15 8 18 1 1 -5 23 -11 48 -12 25 -2
48 -7 53 -13 4 -6 10 -5 16 4 6 8 10 9 12 2 2 -6 27 -13 54 -15 28 -3 50 -5
50 -6 0 -4 49 -10 107 -14 34 -2 70 -6 78 -9 15 -5 29 -7 87 -7 18 0 35 -5 38
-11 5 -7 12 -6 21 2 8 6 14 7 14 2 0 -5 39 -10 87 -11 48 -2 92 -7 98 -12 7
-6 16 -5 23 2 7 7 12 8 12 2 0 -13 31 -14 47 -2 7 6 14 4 19 -3 5 -8 3 -9 -6
-4 -9 5 -11 4 -6 -4 4 -6 12 -9 17 -5 13 8 92 9 104 2 6 -3 18 -2 29 1 26 10
76 1 76 -13 0 -6 5 -4 10 4 6 10 10 11 10 3 0 -7 5 -13 11 -13 5 0 7 5 3 12
-4 7 -3 8 4 4 19 -12 53 -16 47 -5 -4 5 -2 9 4 9 5 0 11 -6 14 -12 3 -10 8 -9
22 2 10 8 16 10 12 4 -10 -17 112 -17 132 -1 12 9 13 9 7 0 -6 -10 617 -13
3099 -13 2068 0 3104 3 3100 10 -3 6 1 10 10 10 9 0 13 5 10 10 -3 6 -1 10 6
10 7 0 10 3 6 6 -3 3 2 14 11 23 10 10 35 42 57 71 22 29 50 64 63 78 12 14
22 31 22 39 0 8 4 12 9 8 5 -3 12 4 16 15 3 11 11 20 16 20 6 0 7 5 4 10 -3 6
-2 10 4 10 6 0 26 22 44 50 19 27 36 48 39 45 3 -3 12 9 21 27 9 18 27 44 41
57 14 14 26 29 26 34 0 6 7 17 15 26 46 51 53 60 47 65 -3 3 2 6 12 6 9 0 15
4 12 8 -2 4 5 19 16 32 11 14 16 18 12 10 -4 -9 -3 -12 2 -7 5 5 10 13 10 18
1 5 2 14 3 20 0 5 6 7 11 4 6 -3 10 1 10 10 0 8 7 18 15 21 8 4 15 12 15 20 0
7 8 18 18 23 9 6 13 11 8 11 -5 0 1 9 13 19 14 12 20 25 15 32 -4 8 -3 9 4 5
7 -4 12 -2 12 4 0 6 5 8 12 4 6 -4 8 -3 5 3 -4 5 8 25 26 43 18 19 25 30 17
25 -14 -8 4 14 58 71 12 13 23 27 25 31 1 5 6 7 10 5 5 -1 6 2 3 7 -4 5 -2 12
4 16 6 4 8 11 5 16 -3 5 1 6 9 3 11 -4 16 0 16 15 0 12 4 21 8 21 5 0 15 11
22 25 7 13 17 22 22 19 4 -3 8 2 8 10 0 9 8 24 18 34 9 10 28 33 42 51 14 18
30 39 37 46 7 7 10 15 7 18 -3 3 4 8 16 12 12 4 19 12 17 18 -2 6 10 25 25 42
39 41 50 54 78 95 14 19 29 41 35 47 5 7 19 24 30 39 11 14 26 32 33 39 6 8
12 18 12 23 0 6 7 13 16 16 8 3 12 10 9 16 -3 5 1 10 10 10 9 0 14 4 11 9 -3
5 1 12 10 15 9 4 14 9 10 13 -3 3 3 12 14 20 11 8 20 19 20 24 0 6 16 27 35
47 19 20 33 43 30 49 -2 7 -1 12 3 12 20 -3 33 2 27 11 -3 6 9 24 27 41 18 18
26 28 18 24 -8 -4 -5 2 8 14 12 12 22 26 22 32 0 6 5 7 10 4 6 -3 10 0 10 7 0
7 11 25 25 40 14 15 25 32 25 38 0 6 5 8 12 4 8 -5 9 -2 5 10 -4 10 -3 15 3
11 6 -3 10 -3 10 2 0 4 11 21 25 37 14 16 25 35 25 43 0 8 5 11 10 8 6 -3 10
1 10 10 0 9 5 13 10 10 6 -3 10 0 10 7 0 8 13 28 29 45 16 18 26 34 23 37 -3
3 2 6 12 6 9 0 14 5 11 10 -3 6 -1 10 6 10 7 0 9 3 6 6 -4 4 3 15 15 25 11 11
18 19 15 19 -4 0 1 9 10 19 9 11 21 17 26 14 6 -3 7 -2 4 4 -4 5 4 21 16 34
12 13 22 27 22 30 0 4 10 16 22 27 13 10 21 21 18 24 -3 2 9 17 25 33 17 16
30 32 30 37 0 9 25 41 54 69 11 11 17 19 13 19 -4 0 6 13 23 30 17 16 28 30
24 30 -4 0 3 9 16 20 13 11 19 20 14 20 -5 0 0 7 10 15 11 8 16 15 11 15 -4 0
5 12 21 27 16 15 28 31 26 35 -1 5 5 11 13 14 8 4 15 11 15 16 0 6 11 21 26
34 14 13 22 24 18 24 -4 0 2 9 14 20 12 12 22 25 22 31 0 6 5 7 12 3 6 -4 8
-3 4 4 -3 6 1 17 9 25 8 9 15 20 15 25 0 6 6 12 13 15 6 2 -1922 3 -4286 3
-2858 -1 -4297 2 -4297 9 0 6 -4 4 -9 -3 -4 -8 -12 -14 -16 -14 -4 0 -12 6
-16 14 -5 8 -9 8 -9 2 0 -7 -12 -10 -32 -6 -18 2 -45 4 -60 4 -18 0 -25 4 -21
12 4 6 -1 5 -10 -3 -11 -9 -17 -10 -17 -2 0 13 -22 10 -32 -4 -5 -6 -8 -6 -8
1 0 7 -18 11 -42 12 -79 0 -118 5 -118 15 0 5 -6 5 -13 -2 -8 -6 -17 -8 -20
-4 -4 3 -27 7 -51 8 -24 2 -50 6 -57 11 -8 4 -34 9 -59 11 -46 3 -95 10 -95
13 0 2 -11 3 -25 4 -14 1 -31 6 -39 10 -10 7 -12 5 -7 -5 4 -8 1 -6 -6 3 -9
11 -19 14 -28 8 -9 -5 -19 -5 -27 2 -7 6 -13 7 -13 2 0 -5 -7 0 -15 10 -8 11
-15 15 -15 9 0 -8 -9 -9 -32 -1 -18 5 -43 11 -55 11 -13 1 -23 5 -23 11 0 5
-3 7 -6 3 -4 -3 -22 0 -40 8 -19 8 -34 10 -34 4 0 -5 -11 -2 -25 7 -13 8 -28
13 -33 10 -5 -3 -17 3 -27 14 -10 11 -23 16 -29 13 -19 -13 -34 -11 -40 3 -3
7 -12 11 -21 8 -8 -3 -15 -2 -15 3 0 5 -6 10 -12 11 -35 3 -54 8 -58 14 -5 6
-36 15 -63 17 -5 1 -6 5 -3 10 4 5 -2 8 -11 6 -10 -1 -23 1 -29 6 -6 5 -23 10
-37 11 -14 1 -24 5 -21 9 4 6 -38 22 -61 23 -5 1 -14 6 -20 12 -5 6 -29 17
-52 24 -24 7 -43 17 -43 23 0 5 -7 6 -15 3 -9 -3 -18 1 -21 9 -4 8 -17 15 -30
15 -13 0 -24 4 -24 8 0 4 -16 14 -35 21 -19 7 -35 17 -35 22 0 6 -4 8 -9 4 -5
-3 -15 0 -23 7 -7 7 -20 14 -28 16 -8 2 -17 8 -18 13 -2 5 -8 7 -12 4 -5 -3
-20 6 -34 20 -14 14 -26 23 -26 20 0 -6 -59 24 -70 35 -15 15 -71 50 -79 50
-6 0 -15 8 -20 18 -6 9 -11 13 -11 9 0 -4 -15 3 -33 17 -19 14 -37 23 -42 18
-5 -4 -5 -2 -2 4 3 6 -5 17 -18 24 -14 7 -25 17 -25 22 0 4 -5 8 -11 8 -7 0
-20 10 -30 22 -11 11 -19 17 -19 13 0 -4 -11 4 -25 19 -13 14 -29 26 -35 26
-5 0 -10 4 -10 9 0 5 -9 13 -20 16 -11 3 -20 13 -20 21 0 8 -5 14 -10 14 -5 0
-28 18 -50 40 -22 22 -45 40 -50 40 -5 0 -10 7 -10 16 0 8 -4 13 -9 9 -5 -3
-12 4 -16 15 -3 11 -13 20 -21 20 -8 0 -14 5 -14 11 0 5 -20 30 -45 55 -25 24
-43 44 -39 44 3 0 -1 7 -10 15 -8 8 -20 15 -26 15 -6 0 -9 4 -6 8 3 5 -10 25
-29 45 -19 21 -32 37 -29 37 3 0 -1 6 -8 14 -7 7 -20 24 -28 36 -8 12 -23 31
-32 42 -10 11 -20 29 -23 39 -4 11 -11 19 -16 19 -5 0 -9 7 -9 15 0 8 -3 15
-8 15 -4 0 -12 9 -17 19 -41 80 -60 111 -67 111 -4 0 -8 8 -8 19 0 10 -7 24
-15 31 -8 7 -12 16 -9 21 3 5 1 9 -5 9 -5 0 -12 14 -16 30 -4 17 -11 30 -16
30 -6 0 -7 5 -4 10 3 6 1 10 -4 10 -6 0 -11 8 -11 19 0 10 -7 24 -15 31 -8 7
-12 16 -9 21 2 5 -3 20 -12 34 -9 14 -12 25 -8 25 5 0 3 4 -3 8 -7 5 -14 20
-15 34 -1 15 -6 24 -10 22 -7 -4 -10 18 -7 42 0 4 -4 10 -10 13 -6 4 -12 19
-13 34 -1 15 -6 27 -10 27 -4 0 -8 16 -8 36 0 24 -4 33 -11 28 -8 -5 -10 1 -7
20 3 15 0 33 -7 40 -7 6 -13 24 -14 39 -3 50 -4 57 -13 57 -4 0 -7 18 -5 41 2
26 -1 43 -9 46 -7 2 -11 18 -9 36 1 18 -3 38 -9 46 -8 11 -8 13 2 7 6 -4 12
-2 12 3 0 6 -4 11 -10 11 -5 0 -6 7 -3 17 4 10 2 14 -4 10 -7 -4 -9 8 -8 36 2
23 -1 47 -6 54 -6 7 -6 13 0 17 10 7 4 44 -11 63 -6 7 -4 14 3 19 8 5 9 3 4
-6 -5 -9 -4 -11 4 -6 9 6 9 11 0 23 -9 10 -13 66 -13 186 -1 141 2 174 14 185
8 8 9 11 3 7 -9 -4 -13 1 -13 15 0 12 3 19 8 17 4 -3 7 29 7 71 0 43 3 80 8
83 4 3 9 33 10 67 1 33 5 58 9 56 4 -3 5 2 2 10 -3 9 -2 16 4 16 5 0 8 12 6
27 -1 15 3 34 9 42 9 12 9 13 0 7 -9 -5 -11 -2 -7 8 3 9 10 14 14 11 5 -3 6 8
4 25 -3 17 -1 30 5 30 6 0 8 7 5 15 -4 8 -2 15 4 15 5 0 8 11 7 25 -2 14 1 25
6 25 5 0 9 14 9 30 0 17 6 33 14 36 8 3 12 12 9 19 -2 8 -1 20 3 27 5 7 9 15
10 18 1 3 5 20 9 38 4 17 12 32 17 32 5 0 7 4 3 9 -3 5 -1 12 5 16 5 3 10 14
10 24 0 26 25 72 35 63 5 -4 5 -2 2 4 -3 6 1 23 8 38 8 16 12 32 9 37 -3 5 2
9 10 9 10 0 13 6 10 15 -4 9 0 15 10 15 9 0 13 6 10 14 -3 7 2 20 10 29 8 8
12 17 9 21 -4 3 -1 6 5 6 6 0 9 6 6 14 -3 7 2 16 11 20 9 3 13 10 10 16 -3 5
-2 10 3 10 4 0 16 16 25 36 10 19 21 32 27 29 5 -3 7 3 5 13 -2 11 8 32 22 48
14 16 30 41 35 56 6 16 14 25 19 22 5 -3 9 1 9 9 0 8 11 26 25 41 13 14 22 26
19 26 -5 0 -2 4 48 63 18 21 32 40 31 42 -1 3 18 25 42 50 25 25 42 45 38 45
-3 0 4 8 15 19 12 10 22 23 22 29 0 6 7 9 15 6 9 -4 15 0 15 10 0 9 4 16 8 16
5 0 15 11 22 25 7 14 15 23 18 21 2 -3 17 8 32 24 15 16 31 26 34 23 3 -4 6 1
6 11 0 9 7 19 16 23 9 3 40 29 67 57 28 28 47 44 43 36 -5 -8 1 -5 13 8 12 12
26 22 32 22 6 0 7 5 4 10 -3 6 1 10 10 10 8 0 18 7 21 15 4 8 10 12 15 9 5 -3
9 0 9 7 0 7 3 9 6 6 4 -3 16 5 27 19 11 14 26 23 34 20 8 -3 11 -1 8 4 -3 6
-2 10 3 10 4 0 18 9 29 20 12 11 27 21 34 22 7 2 21 11 31 21 10 10 24 15 30
11 7 -4 8 -3 4 4 -4 7 -1 12 8 12 9 0 16 5 16 10 0 6 6 10 14 10 7 0 19 7 26
15 7 8 16 12 21 9 5 -3 12 1 15 10 3 9 12 12 21 9 10 -4 14 -2 10 4 -6 10 1
14 38 22 6 1 14 9 18 17 5 8 12 12 18 9 5 -4 9 -1 9 5 0 6 5 8 10 5 6 -3 10
-2 10 3 0 9 26 20 41 18 4 -1 16 8 28 18 12 11 21 15 21 10 0 -5 6 -2 13 7 7
9 14 16 17 17 29 4 60 16 60 24 0 5 4 7 9 3 5 -3 12 -1 16 5 4 6 11 8 16 5 5
-4 9 -1 9 5 0 7 7 9 16 6 8 -3 13 -2 10 3 -3 5 10 12 29 15 19 4 39 14 45 24
7 13 11 14 18 4 7 -10 11 -10 22 2 7 9 16 13 21 10 5 -3 9 0 9 6 0 6 5 8 10 5
6 -3 10 -2 10 3 0 5 7 9 15 10 8 1 22 3 30 4 8 1 15 5 15 9 0 4 8 6 18 5 9 -2
20 1 24 7 3 6 15 11 25 12 10 0 24 4 31 9 14 8 49 18 75 19 9 1 17 5 17 10 0
5 7 7 15 3 8 -3 18 0 22 7 5 7 17 13 28 14 11 0 30 4 43 7 55 15 68 18 80 18
6 1 12 6 12 12 0 6 5 4 10 -4 7 -11 10 -11 10 -2 0 7 4 11 9 7 5 -3 12 -1 16
5 3 5 11 10 16 10 6 0 8 -4 4 -10 -3 -5 7 -3 21 5 15 8 32 11 37 8 6 -3 16 2
24 12 7 11 13 14 13 9 0 -6 7 -11 15 -11 8 0 15 5 15 11 0 6 5 4 10 -4 5 -8
10 -10 10 -4 0 11 5 13 62 17 21 2 41 6 44 10 12 12 26 8 19 -5 -4 -7 -1 -6 7
2 8 9 34 16 67 17 29 1 59 7 66 13 10 8 15 8 20 0 4 -7 11 -8 18 -1 7 5 36 8
64 7 29 -1 54 3 56 8 2 5 11 10 20 12 9 1 15 -2 11 -7 -3 -5 -1 -9 5 -9 5 0
12 3 14 8 3 4 60 7 126 7 67 0 121 3 121 6 0 3 21 4 46 2 25 -2 52 1 58 7 7 5
16 7 20 3 3 -4 16 -8 27 -10 14 -2 18 1 13 9 -6 10 -5 10 7 1 18 -14 91 -13
101 2 4 5 8 1 8 -10 0 -17 2 -17 10 -5 5 8 10 11 10 7 0 -4 10 -3 21 4 12 6
19 7 15 1 -3 -5 1 -13 10 -16 8 -3 13 -2 10 3 -3 5 1 12 10 15 9 4 13 2 8 -5
-4 -8 1 -9 16 -4 17 6 21 4 14 -6 -6 -12 -5 -12 9 0 9 7 17 10 17 6 0 -4 8 -1
17 6 11 10 14 10 9 2 -4 -8 -2 -13 6 -13 8 0 20 6 27 13 8 6 11 7 8 1 -8 -14
80 -18 88 -3 4 5 12 6 18 2 22 -14 49 -14 41 -1 -6 10 -5 10 7 1 17 -14 99
-13 100 1 0 6 4 2 9 -9 5 -11 9 -15 9 -8 1 7 13 10 31 8 21 -3 28 -1 24 7 -5
7 -3 8 7 2 21 -13 100 -13 92 0 -4 6 1 5 10 -3 9 -7 25 -11 36 -8 10 2 25 1
32 -4 9 -5 23 -2 38 8 22 14 24 14 17 -2 -5 -15 -4 -16 8 -6 10 8 16 9 21 2 4
-7 15 -5 33 7 25 16 26 16 19 -2 -6 -16 -5 -17 7 -7 10 9 16 9 21 1 5 -8 15
-6 32 5 14 10 22 12 18 5 -5 -9 -1 -10 15 -5 17 6 21 4 14 -6 -7 -12 -5 -12 9
-1 9 8 25 11 38 7 16 -5 19 -4 14 5 -6 10 -4 11 6 4 21 -13 100 -13 92 0 -5 8
-3 8 8 0 19 -14 61 -16 53 -2 -5 7 -2 8 7 2 21 -13 100 -13 92 0 -4 6 1 5 10
-3 9 -7 25 -11 36 -8 10 2 25 1 32 -4 9 -5 23 -2 38 8 22 14 24 14 17 -2 -5
-15 -4 -16 8 -6 10 8 16 9 21 2 4 -7 15 -5 33 7 25 16 26 16 19 -2 -6 -16 -5
-17 7 -7 10 9 16 9 21 1 5 -8 15 -6 32 5 14 10 22 12 18 5 -5 -9 -1 -10 15 -5
17 6 21 4 14 -6 -7 -12 -5 -12 9 -1 9 8 25 11 38 7 16 -5 19 -4 14 5 -6 10 -4
11 6 4 21 -13 100 -13 92 0 -5 8 -3 8 8 0 19 -14 61 -16 53 -2 -5 7 -2 8 7 2
21 -13 100 -13 92 0 -4 6 1 5 10 -3 9 -7 25 -11 36 -8 10 2 25 1 32 -4 9 -5
23 -2 38 8 22 14 24 14 17 -2 -5 -15 -4 -16 8 -6 10 8 16 9 21 2 4 -7 15 -5
33 7 25 16 26 16 19 -2 -6 -16 -5 -17 7 -7 10 9 16 9 21 1 5 -8 15 -6 32 5 14
10 22 12 18 5 -5 -9 -1 -10 15 -5 17 6 21 4 14 -6 -7 -12 -5 -12 9 -1 9 8 25
11 38 7 16 -5 19 -4 14 5 -6 10 -4 11 6 4 21 -13 100 -13 92 0 -5 8 -3 8 8 0
19 -14 61 -16 53 -2 -5 7 -2 8 7 2 21 -13 100 -13 92 0 -4 6 1 5 10 -3 9 -7
25 -11 36 -8 10 2 25 1 32 -4 9 -5 23 -2 38 8 22 14 24 14 17 -2 -5 -15 -4
-16 8 -6 10 8 16 9 21 2 4 -7 15 -5 33 7 25 16 26 16 19 -2 -6 -16 -5 -17 7
-7 10 9 16 9 21 1 5 -8 15 -6 32 5 14 10 22 12 18 5 -5 -9 -1 -10 15 -5 17 6
21 4 14 -6 -7 -12 -5 -12 9 -1 9 8 25 11 38 7 16 -5 19 -4 14 5 -6 10 -4 11 6
4 21 -13 100 -13 92 0 -4 6 0 5 9 -2 8 -7 22 -10 31 -6 8 3 18 0 22 -6 5 -8
11 -8 22 1 12 10 16 10 24 -2 7 -11 9 -11 9 4 0 17 1 17 16 3 18 -18 28 -21
18 -5 -4 8 1 9 16 4 13 -4 20 -3 17 2 -4 5 0 10 8 10 8 0 11 -5 8 -10 -3 -5 0
-7 8 -5 8 3 22 1 33 -4 13 -7 16 -7 11 1 -4 8 2 10 21 7 17 -3 31 0 36 7 5 8
8 5 8 -8 0 -17 2 -17 10 -5 5 8 10 11 10 7 0 -4 10 -3 21 4 12 6 19 7 15 1 -3
-5 1 -13 10 -16 8 -3 13 -2 10 3 -3 5 1 12 10 15 9 4 13 2 8 -5 -4 -8 1 -9 16
-4 17 6 21 4 14 -6 -6 -12 -5 -12 9 0 9 7 17 10 17 6 0 -4 8 -1 17 6 11 10 14
10 9 2 -4 -8 -2 -13 6 -13 8 0 20 6 27 13 8 6 11 7 8 1 -8 -14 80 -18 88 -3 4
5 12 6 18 2 22 -14 49 -14 41 -1 -6 10 -5 10 7 1 18 -14 91 -13 101 2 4 5 8 1
8 -10 0 -17 2 -17 10 -5 5 8 10 11 10 7 0 -4 10 -3 21 4 12 6 19 7 15 1 -3 -5
1 -13 10 -16 8 -3 13 -2 10 3 -3 5 1 12 10 15 9 4 13 2 8 -5 -4 -8 1 -9 16 -4
17 6 21 4 14 -6 -6 -12 -5 -12 9 0 9 7 17 10 17 6 0 -4 8 -1 17 6 11 10 14 10
9 2 -4 -8 -2 -13 6 -13 8 0 20 6 27 13 8 6 11 7 8 1 -8 -14 80 -18 88 -3 4 5
12 6 18 2 22 -14 49 -14 41 -1 -6 10 -5 10 7 1 18 -14 91 -13 101 2 4 5 8 1 8
-10 0 -17 2 -17 10 -5 5 8 10 11 10 7 0 -4 10 -3 21 4 12 6 19 7 15 1 -3 -5 1
-13 10 -16 8 -3 13 -2 10 3 -3 5 1 12 10 15 9 4 13 2 8 -5 -4 -8 1 -9 16 -4
17 6 21 4 14 -6 -6 -12 -5 -12 9 0 9 7 17 10 17 6 0 -4 8 -1 17 6 11 10 14 10
9 2 -4 -8 -2 -13 6 -13 8 0 20 6 27 13 8 6 11 7 8 1 -8 -14 80 -18 88 -3 4 5
12 6 18 2 22 -14 49 -14 41 -1 -6 10 -5 10 7 1 18 -14 91 -13 101 2 4 5 8 1 8
-10 0 -17 2 -17 10 -5 5 8 10 11 10 7 0 -4 10 -3 21 4 12 6 19 7 15 1 -3 -5 1
-13 10 -16 8 -3 13 -2 10 3 -3 5 1 12 10 15 9 4 13 2 8 -5 -4 -8 1 -9 16 -4
17 6 21 4 14 -6 -6 -12 -5 -12 9 0 9 7 17 10 17 6 0 -4 8 -1 17 6 11 10 14 10
9 2 -4 -8 -2 -13 6 -13 8 0 20 6 27 13 8 6 11 7 8 1 -8 -14 80 -18 88 -3 4 5
12 6 18 2 22 -14 49 -14 41 -1 -6 10 -5 10 7 1 18 -14 91 -13 101 2 4 5 8 1 8
-10 0 -17 2 -17 10 -5 5 8 10 11 10 7 0 -4 10 -3 21 4 12 6 19 7 15 1 -3 -5 1
-13 10 -16 8 -3 13 -2 10 3 -3 5 1 12 10 15 9 4 13 2 8 -5 -4 -8 1 -9 16 -4
17 6 21 4 14 -6 -6 -12 -5 -12 9 0 9 7 17 10 17 6 0 -4 8 -1 17 6 11 10 14 10
9 2 -4 -8 -2 -13 6 -13 8 0 20 6 27 13 8 6 11 7 8 1 -8 -14 80 -18 88 -3 4 5
12 6 18 2 22 -14 49 -14 41 -1 -6 10 -5 10 7 1 18 -14 91 -13 101 2 4 5 8 1 8
-10 0 -17 2 -17 10 -5 5 8 10 11 10 7 0 -4 10 -3 21 4 12 6 19 7 15 1 -3 -5 1
-13 10 -16 8 -3 13 -2 10 3 -3 5 1 12 10 15 9 4 13 2 8 -5 -4 -8 1 -9 16 -4
17 5 21 4 15 -6 -5 -8 7 2 26 21 20 19 34 38 33 41 -2 3 11 21 29 40 17 19 30
37 29 42 -1 4 2 7 8 7 5 0 10 5 10 11 0 7 10 20 23 31 12 11 22 23 22 27 0 7
19 31 49 61 11 11 17 20 13 20 -3 0 5 11 19 25 14 14 22 30 18 37 -4 7 -3 8 4
4 8 -4 16 3 22 19 5 14 15 23 20 20 6 -4 10 -3 9 2 -3 20 2 34 11 28 6 -3 10
1 10 9 0 9 5 16 12 16 6 0 9 3 6 6 -3 3 7 19 23 37 16 17 29 37 29 45 0 7 5
10 10 7 6 -3 10 1 10 9 0 9 4 16 8 16 4 0 15 12 24 28 9 15 25 37 35 48 32 38
62 79 63 87 0 12 34 44 43 40 4 -2 7 2 7 10 0 8 11 26 25 41 13 14 21 26 17
26 -4 0 2 7 12 15 11 8 17 15 13 15 -4 0 1 9 11 19 51 56 70 80 65 85 -3 2 4
11 16 18 12 7 21 18 21 25 0 7 5 13 10 13 6 0 10 7 10 15 0 8 9 19 20 25 11 6
20 17 20 26 0 8 7 17 15 20 8 4 15 13 15 20 0 8 7 17 15 20 8 4 15 10 15 15 0
8 20 36 48 65 7 8 11 14 7 14 -3 0 6 11 21 25 15 14 24 25 20 25 -3 0 3 9 14
20 12 12 18 26 14 32 -4 7 -3 8 5 4 6 -4 14 0 17 8 3 9 11 13 17 9 5 -3 7 -1
3 5 -3 6 1 18 10 26 8 9 12 16 8 16 -4 0 8 14 26 30 18 17 29 30 24 30 -5 0 0
7 10 15 11 8 17 15 13 15 -3 0 5 12 18 26 14 15 25 33 25 41 0 8 4 12 9 8 5
-3 12 4 16 15 3 11 10 20 15 20 5 0 12 9 15 20 4 11 11 17 17 14 6 -4 8 -2 5
3 -4 6 3 22 16 36 49 56 65 77 60 77 -3 0 4 9 17 20 13 11 19 20 15 20 -4 0 2
8 13 19 12 10 22 22 22 27 0 5 9 17 20 27 12 10 18 23 14 29 -4 6 -3 8 2 5 6
-3 23 14 39 38 17 25 34 45 38 45 5 0 6 4 2 9 -3 5 4 12 15 16 11 3 19 10 17
14 -2 8 27 52 53 80 28 29 70 89 70 100 0 6 5 10 12 9 7 -2 12 2 13 8 0 6 8
18 18 28 9 10 17 22 17 27 0 6 5 7 12 3 6 -4 8 -3 4 4 -3 6 -2 13 4 17 6 4 7
11 4 17 -4 6 -3 8 3 5 5 -4 16 5 23 18 7 13 17 22 22 19 4 -3 8 1 8 9 0 8 10
25 23 39 12 14 29 36 37 48 8 13 23 32 33 42 9 10 17 25 17 34 0 8 4 13 8 10
5 -3 16 8 26 25 9 16 22 29 27 29 6 0 7 5 4 10 -3 6 -2 10 3 10 5 0 14 12 20
26 7 15 17 22 24 18 7 -4 8 -3 4 4 -4 7 -2 12 4 12 6 0 9 4 5 9 -3 6 4 15 16
21 11 7 18 14 15 17 -3 4 8 19 24 35 16 15 26 28 22 28 -4 1 3 9 15 19 12 10
19 21 16 25 -3 3 2 8 11 12 9 3 16 11 16 18 0 6 8 19 18 28 24 24 44 48 37 48
-3 0 3 8 13 18 28 30 52 62 52 69 0 3 13 18 29 34 23 22 26 29 14 33 -27 11
-8891 6 -8919 -4 -14 -6 -23 -7 -21 -2 3 4 -8 7 -23 7 -16 1 -26 -3 -24 -7 3
-4 -2 -8 -11 -8 -9 0 -13 5 -10 10 3 6 4 10 1 10 -3 0 -8 -5 -11 -11z"/>
<path d="M28949 22659 c-6 -3 -21 -5 -35 -3 -13 1 -24 -2 -24 -6 0 -5 -9 -7
-20 -5 -11 2 -20 0 -20 -5 0 -4 -7 -11 -16 -14 -8 -3 -12 -2 -9 4 3 6 -11 0
-32 -12 -21 -12 -39 -26 -41 -30 -2 -4 -10 -8 -18 -8 -8 0 -14 -5 -14 -11 0
-5 -4 -8 -9 -4 -6 3 -15 -4 -21 -15 -6 -11 -15 -18 -20 -15 -5 3 -17 -8 -26
-24 -10 -17 -21 -28 -26 -25 -4 3 -8 -2 -8 -10 0 -9 -4 -16 -10 -16 -5 0 -10
-7 -10 -15 0 -8 -4 -15 -10 -15 -5 0 -10 -7 -10 -16 0 -8 -4 -13 -9 -9 -6 3
-8 -3 -6 -14 2 -11 -3 -22 -11 -25 -8 -3 -11 -12 -7 -22 4 -10 2 -15 -3 -11
-5 3 -11 -3 -12 -14 -4 -41 -6 -49 -11 -49 -3 0 -8 -39 -9 -87 -2 -48 -6 -91
-8 -95 -3 -5 0 -8 6 -8 6 0 8 -4 5 -10 -3 -5 0 -10 7 -10 9 0 9 -3 -2 -10 -12
-8 -12 -10 -1 -10 8 0 11 -3 8 -7 -4 -3 -1 -13 6 -21 10 -13 9 -14 -3 -7 -11
7 -11 3 3 -18 10 -15 15 -32 12 -37 -3 -6 -2 -10 3 -10 6 0 15 -13 21 -30 5
-16 15 -30 21 -30 6 0 8 -5 5 -10 -3 -6 1 -13 10 -16 12 -5 13 -9 5 -14 -9 -5
-6 -10 9 -15 12 -3 19 -11 16 -16 -4 -5 -2 -9 2 -9 5 0 28 -18 53 -40 24 -21
47 -37 52 -34 4 3 8 1 8 -5 0 -11 56 -41 77 -41 7 0 13 -4 13 -10 0 -5 3 -9 8
-9 22 4 53 -2 48 -9 -2 -4 15 -8 40 -7 24 0 44 -4 44 -10 0 -5 5 -3 10 5 5 8
10 10 10 4 0 -14 32 -13 42 1 5 6 8 5 8 -4 0 -11 3 -11 15 -1 12 10 15 10 15
-1 0 -9 3 -10 8 -4 4 6 16 11 27 12 51 7 85 16 85 24 0 5 9 9 19 9 11 0 23 5
26 11 4 5 12 8 18 6 7 -2 20 5 30 16 9 11 17 17 17 13 0 -4 11 3 24 16 13 13
32 30 42 39 26 22 75 79 68 79 -3 0 2 7 10 16 9 8 16 22 16 30 0 8 4 14 9 14
5 0 12 7 15 16 4 10 2 13 -7 8 -13 -8 12 26 27 38 5 3 9 25 9 47 0 23 4 41 10
41 7 0 7 4 -1 12 -6 6 -8 18 -3 27 10 21 8 82 -3 100 -7 11 -6 12 5 6 12 -8
12 -6 0 8 -11 14 -11 17 0 17 11 0 11 2 2 8 -7 4 -14 17 -16 27 -1 11 -6 26
-10 33 -5 6 -6 16 -2 21 3 5 1 12 -5 16 -6 4 -8 10 -5 15 3 4 -2 11 -11 14 -9
3 -14 12 -12 18 3 7 -5 21 -16 31 -12 10 -15 16 -9 12 9 -4 11 -1 7 9 -3 9 -9
14 -13 11 -4 -2 -15 5 -24 15 -11 13 -12 20 -4 24 8 3 7 5 -2 5 -8 1 -26 14
-40 30 -14 15 -36 32 -48 35 -13 4 -23 14 -23 22 0 8 -4 12 -10 9 -5 -3 -10
-1 -10 4 0 6 -3 10 -7 9 -16 -3 -63 15 -63 24 0 5 -4 7 -8 4 -5 -3 -20 1 -35
9 -14 7 -28 11 -30 8 -3 -2 -15 1 -27 7 -15 8 -20 8 -16 1 4 -6 3 -11 -3 -11
-5 0 -13 5 -16 10 -3 6 -13 10 -21 10 -9 0 -12 -5 -8 -12 5 -7 3 -8 -7 -2 -17
10 -65 12 -80 3z"/>
<path d="M12769 22530 c-1 -3 -1 -31 -1 -63 0 -41 -3 -55 -11 -50 -9 5 -9 3
-1 -8 15 -20 16 -241 0 -232 -8 5 -8 3 0 -8 15 -20 16 -241 0 -232 -8 5 -8 3
0 -8 14 -17 13 -217 0 -239 -9 -13 -8 -13 9 0 13 10 16 11 11 2 -4 -7 -8 -29
-8 -48 0 -19 -4 -37 -10 -40 -5 -3 -2 -14 8 -25 16 -18 16 -19 -2 -19 -11 0
-15 -3 -8 -8 6 -4 11 -15 11 -24 0 -10 -3 -16 -5 -13 -3 3 -11 0 -18 -6 -8 -7
-14 -7 -19 1 -4 7 -13 7 -27 -1 -11 -6 -18 -7 -14 -1 7 12 -63 10 -83 -3 -11
-6 -13 -4 -7 10 5 15 4 16 -9 5 -8 -7 -15 -9 -15 -5 0 4 -8 1 -17 -6 -9 -8
-14 -9 -10 -3 9 15 -45 14 -55 -1 -5 -7 -8 -7 -8 0 0 12 -39 14 -56 3 -6 -4
-14 -4 -18 -1 -11 11 -36 12 -36 2 0 -6 -5 -7 -10 -4 -6 4 -7 12 -3 18 5 9 3
9 -8 1 -8 -6 -24 -10 -37 -8 -15 3 -21 0 -16 -7 4 -7 -1 -7 -16 1 -18 10 -24
9 -31 -1 -5 -8 -9 -9 -9 -3 0 5 -11 10 -25 10 -14 0 -25 -4 -25 -9 0 -4 -5 -5
-10 -2 -6 4 -7 12 -3 18 5 9 3 9 -8 0 -9 -7 -25 -11 -37 -8 -12 2 -24 0 -27
-5 -8 -13 -36 0 -28 14 3 6 -3 3 -14 -7 -12 -10 -24 -14 -27 -9 -6 11 -55 10
-72 0 -6 -4 -14 -4 -18 -1 -11 11 -36 12 -36 2 0 -6 -5 -7 -10 -4 -6 4 -7 12
-3 18 4 7 0 6 -10 -2 -9 -7 -17 -10 -17 -6 0 4 -8 1 -17 -6 -9 -8 -14 -9 -10
-3 4 7 -5 11 -23 11 -17 0 -27 -5 -23 -10 4 -6 1 -7 -8 -1 -18 11 -39 14 -40
6 -1 -4 -2 -292 -3 -639 -1 -557 1 -633 14 -634 8 -1 238 -2 510 -3 l495 -1 1
-112 c1 -81 -2 -111 -10 -106 -8 5 -8 3 0 -8 15 -20 16 -241 0 -232 -8 5 -8 3
0 -8 15 -20 16 -241 0 -232 -8 5 -8 3 0 -8 15 -20 16 -241 0 -232 -6 4 -5 0 2
-9 7 -9 12 -22 11 -30 -5 -38 1 -49 22 -43 16 6 20 4 13 -6 -6 -11 -5 -12 7
-2 18 14 59 13 59 -2 0 -5 5 -3 10 5 5 8 10 11 10 6 0 -5 6 -3 14 3 11 9 16 9
22 0 5 -8 3 -9 -6 -4 -9 5 -11 4 -6 -4 4 -6 13 -8 19 -4 18 12 60 11 76 -1 9
-7 12 -7 9 -1 -4 7 15 10 52 11 39 0 57 -3 53 -10 -4 -6 0 -6 8 1 18 14 59 13
59 -2 0 -5 5 -3 10 5 5 8 10 11 10 6 0 -5 6 -3 14 3 11 9 16 9 22 0 5 -8 3 -9
-6 -4 -9 5 -11 4 -6 -4 4 -6 13 -8 19 -4 18 12 60 11 76 -1 11 -8 13 -8 8 0
-4 8 18 10 73 9 54 -2 78 1 73 8 -4 6 -1 7 8 1 21 -13 80 -14 72 0 -4 7 -1 6
9 -1 8 -7 18 -10 22 -6 4 4 11 1 16 -7 6 -8 10 -10 10 -4 0 6 12 10 28 9 15
-1 33 3 41 9 12 9 13 8 7 -3 -7 -10 -2 -12 23 -6 22 5 31 3 31 -6 0 -10 3 -10
12 -1 16 16 31 15 22 0 -5 -9 -2 -9 9 1 9 7 17 10 17 6 0 -4 8 -1 17 6 9 8 14
9 11 4 -4 -7 18 -11 62 -11 44 -1 67 3 63 9 -4 6 -1 7 8 1 23 -14 67 -13 73 2
3 8 0 14 -7 14 -8 0 -8 3 -2 8 12 8 13 650 2 669 -4 6 -4 14 1 17 6 4 9 186 2
194 -3 3 -3 40 0 50 2 4 3 18 4 32 l1 25 508 0 508 0 6 24 c3 13 1 32 -5 41
-8 13 -7 21 1 29 9 9 8 14 -3 21 -9 6 -10 10 -3 10 14 0 13 132 -2 142 -7 5
-7 8 0 8 12 0 14 384 3 396 -4 4 -3 13 3 21 9 10 8 17 -2 30 -8 9 -9 14 -3 10
9 -5 12 13 11 63 -1 40 -6 70 -12 70 -5 0 -3 5 5 10 12 7 13 13 3 28 -8 14 -9
22 -1 30 8 8 7 16 -3 28 -8 10 -9 15 -3 11 9 -5 12 13 11 63 -1 40 -6 70 -12
70 -5 0 -3 5 5 10 12 8 13 13 3 29 -8 13 -9 22 -3 26 6 3 7 18 4 32 -5 19 -4
24 6 18 9 -6 9 -2 -1 16 -7 13 -12 25 -11 27 1 1 2 8 2 15 0 8 -4 7 -10 -3 -5
-8 -10 -10 -10 -4 0 13 -38 12 -59 0 -10 -6 -12 -5 -7 2 8 13 -20 12 -41 -1
-7 -4 -16 0 -22 10 -6 10 -11 13 -11 6 0 -7 -10 -10 -26 -7 -18 3 -23 1 -18
-7 5 -8 3 -9 -7 -3 -21 13 -39 14 -39 1 0 -8 -3 -8 -8 -2 -11 15 -34 18 -42 5
-5 -8 -12 -7 -24 5 -9 9 -16 12 -16 6 0 -7 -11 -9 -25 -7 -13 3 -27 1 -30 -4
-8 -13 -36 0 -28 14 3 6 -3 3 -14 -7 -12 -10 -24 -14 -27 -9 -6 11 -55 10 -72
0 -6 -4 -14 -4 -18 -1 -11 11 -36 12 -36 2 0 -6 -5 -7 -10 -4 -6 4 -7 12 -3
18 4 7 0 6 -10 -2 -9 -7 -17 -10 -17 -6 0 4 -8 1 -17 -6 -9 -8 -14 -9 -10 -3
7 13 -40 14 -59 2 -6 -4 -14 -4 -18 -1 -11 11 -36 12 -36 2 0 -6 -5 -7 -10 -4
-6 4 -7 12 -3 18 5 9 3 9 -8 1 -8 -6 -24 -10 -37 -8 -15 3 -21 0 -16 -7 4 -7
-1 -7 -16 1 -18 10 -24 9 -31 -1 -5 -8 -9 -9 -9 -3 0 5 -11 10 -25 10 -14 0
-25 -4 -25 -9 0 -4 -5 -5 -10 -2 -6 4 -8 11 -4 16 3 6 -4 5 -15 -3 -27 -17
-39 -2 -36 48 1 19 -3 34 -8 34 -6 0 -6 5 0 13 7 10 11 192 3 192 -5 0 -6 46
-1 50 6 3 7 190 1 190 -5 0 -6 46 -1 50 6 3 6 186 1 193 -3 3 -3 41 0 45 5 5
5 197 0 198 -17 4 -1270 3 -1271 -1z"/>
<path d="M27698 21394 c-4 -3 -14 -7 -25 -9 -10 -2 -20 -4 -23 -5 -3 -1 -16
-1 -29 0 -13 1 -21 -3 -17 -8 4 -6 -4 -9 -19 -7 -14 1 -25 -2 -25 -7 0 -5 -4
-7 -9 -3 -5 3 -12 1 -16 -5 -3 -5 -15 -10 -26 -10 -11 0 -17 -4 -14 -10 5 -9
-16 -15 -38 -11 -5 1 -6 -2 -4 -6 6 -10 -19 -34 -26 -27 -3 3 -10 -4 -17 -15
-6 -12 -15 -19 -20 -16 -4 3 -18 -11 -30 -30 -12 -19 -26 -35 -31 -35 -5 0 -9
-6 -9 -14 0 -8 -7 -17 -16 -20 -8 -3 -12 -10 -9 -16 3 -5 1 -10 -5 -10 -6 0
-8 -5 -5 -10 3 -6 0 -13 -9 -16 -8 -3 -12 -12 -9 -20 3 -8 0 -14 -7 -14 -6 0
-8 -4 -5 -10 3 -5 2 -10 -3 -10 -5 0 -8 -14 -7 -30 1 -17 -3 -34 -8 -37 -6 -4
-7 -1 -2 8 5 8 5 11 0 7 -4 -4 -9 -31 -9 -60 -1 -29 -5 -59 -9 -65 -5 -7 -5
-13 0 -13 4 0 9 -12 9 -27 3 -63 9 -93 18 -93 5 0 7 -3 3 -6 -3 -4 1 -20 9
-36 8 -16 12 -33 9 -38 -4 -6 1 -13 9 -16 9 -3 13 -10 10 -15 -3 -5 0 -9 6 -9
6 0 8 -4 5 -10 -3 -5 -1 -10 6 -10 7 0 9 -3 6 -7 -4 -3 2 -13 13 -20 11 -8 18
-19 15 -24 -4 -5 -2 -9 3 -9 5 0 30 -20 55 -44 25 -25 48 -42 51 -39 3 4 6 1
6 -5 0 -7 7 -12 16 -12 9 0 12 -5 8 -12 -4 -6 -3 -8 4 -4 6 3 16 1 24 -6 7 -7
20 -14 28 -16 8 -2 18 -9 22 -15 6 -9 8 -8 8 2 0 10 3 11 14 2 8 -6 28 -13 45
-14 17 -1 31 -6 31 -11 0 -5 3 -6 6 -3 4 3 16 2 27 -4 14 -8 18 -8 13 0 -10
15 17 14 33 -1 10 -10 12 -10 7 -1 -5 9 4 11 34 8 22 -2 40 0 40 4 0 5 11 6
25 3 17 -3 25 0 25 9 0 11 2 11 10 -1 8 -13 10 -12 10 5 0 14 3 16 11 8 8 -8
20 -6 45 9 19 11 34 17 34 14 0 -7 15 4 50 36 10 9 21 14 24 11 3 -3 8 2 12
11 3 9 10 13 15 10 5 -3 9 0 9 6 0 6 5 8 12 4 7 -4 8 -3 4 4 -3 6 3 16 14 22
11 6 18 15 15 19 -3 5 2 12 11 15 9 4 14 9 11 13 -4 3 6 17 21 31 15 13 20 21
12 17 -13 -6 -13 -5 0 7 8 7 16 20 18 28 2 8 7 16 12 18 5 2 7 9 4 16 -3 8 2
21 11 30 12 12 13 16 3 16 -9 0 -9 3 -2 8 6 4 10 15 8 25 -1 9 2 17 7 17 6 0
8 4 4 9 -3 5 -1 12 5 16 6 4 8 11 4 17 -10 17 -10 128 1 132 6 3 3 5 -5 5 -10
1 -16 13 -17 38 -1 20 -7 39 -13 43 -7 4 -11 9 -9 11 1 2 -1 15 -5 29 -5 14
-8 28 -7 33 1 4 -6 7 -15 7 -8 0 -12 5 -9 10 3 6 -11 31 -32 58 -44 54 -63 75
-63 69 0 -3 -17 11 -37 29 -20 19 -43 34 -51 34 -7 0 -11 4 -8 9 4 5 -2 8 -11
6 -10 -1 -28 7 -40 18 -15 13 -23 16 -23 8 0 -10 -3 -11 -13 -2 -8 6 -17 8
-20 4 -4 -3 -7 -2 -7 3 0 5 -14 11 -32 12 -17 2 -38 8 -47 15 -9 7 -12 8 -8 1
4 -7 -2 -11 -18 -11 -15 0 -22 4 -18 11 3 6 -3 3 -14 -7 -16 -14 -23 -15 -29
-6 -5 8 -3 10 6 4 9 -5 11 -4 6 3 -8 14 -10 14 -18 6z"/>
<path d="M30235 21390 c-4 -6 -16 -10 -26 -7 -11 3 -19 1 -19 -5 0 -5 -4 -7
-9 -3 -5 3 -13 0 -17 -6 -4 -8 -9 -7 -15 2 -7 11 -9 11 -9 1 0 -7 -4 -10 -10
-7 -5 3 -10 2 -10 -4 0 -6 -7 -8 -15 -5 -8 4 -15 1 -15 -6 0 -7 -6 -10 -14 -7
-8 3 -17 -1 -20 -9 -3 -9 -10 -12 -16 -9 -5 3 -10 1 -10 -5 0 -7 -7 -10 -15
-6 -8 3 -14 0 -12 -7 1 -7 -3 -11 -10 -10 -7 2 -17 -6 -23 -17 -6 -11 -15 -18
-21 -15 -5 4 -9 1 -9 -5 0 -6 -15 -25 -32 -43 -18 -17 -32 -35 -30 -39 1 -4
-3 -8 -8 -8 -9 0 -34 -49 -30 -59 1 -2 -4 -7 -12 -12 -13 -8 -14 -12 -17 -45
0 -8 -5 -13 -10 -9 -6 3 -8 -3 -6 -15 2 -11 -1 -22 -6 -25 -5 -4 -6 -11 -3
-17 4 -6 0 -14 -7 -19 -11 -7 -11 -9 -1 -9 8 0 10 -5 5 -12 -9 -15 -12 -148
-4 -148 3 0 7 -17 8 -37 1 -21 7 -39 13 -41 5 -2 10 -14 10 -26 0 -26 21 -76
33 -76 4 0 7 -7 7 -15 0 -7 8 -19 18 -24 9 -6 13 -11 9 -11 -4 0 4 -11 18 -25
14 -14 25 -30 25 -35 0 -6 5 -10 10 -10 6 0 22 -11 36 -25 14 -14 29 -25 33
-25 4 0 18 -9 31 -20 12 -11 27 -17 31 -14 5 3 9 0 9 -6 0 -6 4 -9 9 -5 5 3
12 1 16 -5 4 -6 11 -8 16 -5 5 4 9 1 9 -5 0 -7 7 -10 15 -6 8 3 15 1 15 -4 0
-5 7 -7 15 -4 8 4 15 2 15 -3 0 -5 7 -10 15 -10 8 0 15 5 15 10 0 5 7 4 15 -3
8 -6 19 -9 26 -5 6 4 15 1 20 -6 6 -10 9 -10 9 -2 0 7 7 10 16 6 9 -3 20 0 25
8 5 9 9 10 9 2 0 -6 10 -10 23 -8 12 2 31 5 42 7 11 2 26 10 33 18 10 11 12
12 6 1 -6 -11 -3 -13 12 -7 10 5 25 9 32 9 6 0 12 3 12 7 0 3 18 14 40 24 22
10 40 22 40 27 0 6 5 7 10 4 6 -3 10 -1 10 6 0 7 3 10 6 6 5 -5 49 38 112 108
10 12 16 27 14 34 -3 9 0 11 8 6 10 -6 12 -4 7 8 -3 9 0 18 9 21 8 3 13 9 12
13 0 4 4 21 11 37 6 15 12 39 13 52 1 13 6 24 10 24 4 0 4 7 1 17 -5 11 -3 14
6 8 10 -6 11 -3 2 12 -7 14 -7 23 1 31 7 7 8 12 2 12 -11 0 -11 40 0 58 4 7 3
12 -3 12 -11 0 -9 19 3 39 6 10 5 12 -2 7 -12 -7 -16 5 -13 32 1 6 -2 12 -6
12 -5 0 -10 9 -11 20 -1 11 -3 29 -4 40 -1 11 -6 20 -10 20 -4 0 -8 7 -8 15 0
8 -4 15 -10 15 -5 0 -10 7 -10 15 0 7 -6 18 -14 22 -14 8 -16 12 -16 33 0 6
-7 10 -15 10 -8 0 -15 4 -15 9 0 9 -57 71 -66 71 -3 0 -12 7 -21 15 -8 8 -19
12 -25 9 -7 -4 -8 -2 -4 4 6 11 -6 16 -26 13 -5 0 -8 4 -8 9 0 6 -7 10 -15 10
-8 0 -15 4 -15 8 0 5 -6 9 -12 10 -7 0 -24 3 -38 7 -14 4 -34 8 -45 10 -11 2
-21 4 -22 5 -2 2 -7 3 -12 4 -5 0 -13 4 -17 8 -4 4 -13 3 -21 -3 -7 -6 -13 -8
-13 -4 0 4 -7 2 -15 -5 -13 -11 -14 -10 -8 6 6 16 4 17 -8 7 -11 -9 -19 -9
-26 -2 -8 8 -13 7 -18 -1z"/>
<path d="M28970 20112 c0 -5 -15 -8 -32 -7 -18 0 -39 -3 -45 -8 -7 -5 -13 -6
-13 -2 0 4 -8 1 -17 -6 -15 -12 -16 -12 -8 1 5 9 0 8 -13 -4 -12 -11 -22 -16
-22 -11 0 4 -7 2 -15 -5 -8 -7 -15 -9 -15 -6 0 4 -7 0 -16 -8 -8 -9 -21 -16
-28 -16 -6 0 -29 -16 -49 -35 -20 -19 -37 -33 -37 -30 0 3 -8 -3 -18 -12 -11
-10 -17 -21 -15 -25 2 -3 -9 -16 -23 -27 -15 -12 -23 -21 -19 -21 4 0 2 -7 -5
-15 -7 -8 -9 -15 -4 -15 5 0 -1 -7 -13 -15 -14 -10 -20 -24 -19 -40 2 -13 -1
-22 -5 -19 -9 5 -24 -43 -28 -89 -1 -5 -7 -5 -13 -1 -10 6 -10 4 0 -8 8 -10 9
-19 4 -22 -6 -3 -7 -21 -2 -41 4 -20 4 -38 -1 -41 -5 -3 -6 -10 -3 -16 4 -5 8
-24 10 -41 4 -42 8 -59 17 -74 5 -8 3 -13 -5 -13 -9 0 -9 -3 2 -10 8 -5 15
-13 15 -17 2 -21 17 -53 26 -53 6 0 8 -4 4 -9 -3 -6 2 -14 11 -19 9 -5 15 -12
15 -15 -3 -25 1 -37 12 -34 6 1 11 -4 10 -10 -2 -7 1 -13 6 -13 5 0 29 -20 53
-45 24 -24 51 -45 61 -45 9 0 17 -6 17 -13 0 -8 6 -14 13 -15 22 -1 84 -27
103 -42 11 -9 15 -10 10 -2 -4 6 -2 12 3 12 6 0 11 -4 11 -9 0 -6 9 -8 20 -6
11 2 22 0 24 -4 6 -10 37 -8 55 4 9 5 12 4 7 -3 -7 -12 32 -11 51 1 6 4 15 3
18 -3 4 -7 12 -7 18 -2 7 4 19 8 27 7 8 0 21 6 28 15 8 8 11 9 7 3 -7 -14 7
-18 19 -5 8 7 13 8 42 11 8 0 13 5 9 10 -3 6 3 8 14 6 11 -2 22 3 25 11 3 9
10 12 16 9 6 -3 13 1 16 9 3 9 10 14 14 11 4 -3 11 2 14 11 4 9 9 14 12 11 7
-7 92 76 87 86 -3 4 3 10 11 13 9 3 16 12 16 20 0 8 5 14 11 14 6 0 9 6 6 14
-3 8 1 17 9 20 9 3 12 10 9 16 -3 5 -1 10 4 10 6 0 11 9 11 19 0 11 4 22 8 25
4 2 9 19 10 37 1 18 8 39 14 46 8 9 7 13 -1 13 -7 0 -9 5 -4 13 11 17 12 107
1 107 -5 0 -4 8 1 18 6 12 7 22 1 28 -5 5 -11 25 -13 44 -2 19 -9 36 -15 38
-5 1 -7 12 -4 24 3 13 1 19 -5 15 -6 -4 -14 4 -17 18 -4 14 -11 25 -16 25 -5
0 -6 7 -3 17 4 10 2 14 -5 9 -6 -3 -13 3 -17 14 -9 28 -89 106 -125 122 -16 7
-30 17 -30 21 0 5 -4 5 -10 2 -5 -3 -10 2 -10 11 0 10 -3 15 -6 12 -3 -4 -21
0 -40 8 -19 8 -39 12 -44 9 -4 -3 -10 0 -12 5 -2 6 -21 12 -44 14 -22 1 -46 6
-53 10 -6 4 -19 2 -28 -6 -12 -9 -15 -9 -9 0 4 6 3 12 -1 12 -5 0 -15 -6 -22
-12 -11 -10 -13 -10 -7 0 4 6 2 12 -3 12 -6 0 -11 -4 -11 -8z"/>
</g>
</svg>
